<?xml version="1.0" encoding="UTF-8" standalone="no"?>
<!-- Created with Inkscape (http://www.inkscape.org/) -->

<svg
   xmlns:osb="http://www.openswatchbook.org/uri/2009/osb"
   xmlns:dc="http://purl.org/dc/elements/1.1/"
   xmlns:cc="http://creativecommons.org/ns#"
   xmlns:rdf="http://www.w3.org/1999/02/22-rdf-syntax-ns#"
   xmlns:svg="http://www.w3.org/2000/svg"
   xmlns="http://www.w3.org/2000/svg"
   xmlns:xlink="http://www.w3.org/1999/xlink"
   xmlns:sodipodi="http://sodipodi.sourceforge.net/DTD/sodipodi-0.dtd"
   xmlns:inkscape="http://www.inkscape.org/namespaces/inkscape"
   inkscape:export-ydpi="90"
   inkscape:export-xdpi="90"
   inkscape:export-filename="/home/theo/omrihar/Work/ISUILS10/Poster/drawing1.png"
   inkscape:version="0.48.1 r9760"
   version="1.1"
   id="svg2"
   height="744.09448"
   width="1052.3622"
   sodipodi:docname="Electron_laser1.svg"
   style="display:inline">
  <sodipodi:namedview
     id="base"
     pagecolor="#ffffff"
     bordercolor="#666666"
     borderopacity="1.0"
     inkscape:pageopacity="0.0"
     inkscape:pageshadow="2"
     inkscape:zoom="0.71838385"
     inkscape:cx="500.06714"
     inkscape:cy="316.3667"
     inkscape:document-units="px"
     inkscape:current-layer="layer1"
     showgrid="true"
     inkscape:window-width="1280"
     inkscape:window-height="947"
     inkscape:window-x="1280"
     inkscape:window-y="24"
     inkscape:window-maximized="1"
     showguides="true"
     inkscape:guide-bbox="true">
    <inkscape:grid
       type="xygrid"
       id="grid9567"
       empspacing="5"
       visible="true"
       enabled="true"
       snapvisiblegridlinesonly="true"
       dotted="false" />
  </sodipodi:namedview>
  <defs
     id="defs4">
    <marker
       style="overflow:visible"
       id="Arrow2Mstart"
       refX="0.0"
       refY="0.0"
       orient="auto"
       inkscape:stockid="Arrow2Mstart">
      <path
         transform="scale(0.6) translate(0,0)"
         d="M 8.7185878,4.0337352 L -2.2072895,0.016013256 L 8.7185884,-4.0017078 C 6.9730900,-1.6296469 6.9831476,1.6157441 8.7185878,4.0337352 z "
         style="font-size:12.0;fill-rule:evenodd;stroke-width:0.62500000;stroke-linejoin:round"
         id="path3909" />
    </marker>
    <marker
       style="overflow:visible"
       id="Arrow2Lstart"
       refX="0.0"
       refY="0.0"
       orient="auto"
       inkscape:stockid="Arrow2Lstart">
      <path
         transform="scale(1.1) translate(1,0)"
         d="M 8.7185878,4.0337352 L -2.2072895,0.016013256 L 8.7185884,-4.0017078 C 6.9730900,-1.6296469 6.9831476,1.6157441 8.7185878,4.0337352 z "
         style="font-size:12.0;fill-rule:evenodd;stroke-width:0.62500000;stroke-linejoin:round"
         id="path3903" />
    </marker>
    <marker
       style="overflow:visible"
       id="Arrow1Lstart"
       refX="0.0"
       refY="0.0"
       orient="auto"
       inkscape:stockid="Arrow1Lstart">
      <path
         transform="scale(0.8) translate(12.5,0)"
         style="fill-rule:evenodd;stroke:#000000;stroke-width:1.0pt;marker-start:none"
         d="M 0.0,0.0 L 5.0,-5.0 L -12.5,0.0 L 5.0,5.0 L 0.0,0.0 z "
         id="path3885" />
    </marker>
    <linearGradient
       id="linearGradient9831"
       inkscape:collect="always">
      <stop
         id="stop9833"
         offset="0"
         style="stop-color:#ffffff;stop-opacity:1;" />
      <stop
         id="stop9835"
         offset="1"
         style="stop-color:#ffffff;stop-opacity:0;" />
    </linearGradient>
    <linearGradient
       id="linearGradient9821">
      <stop
         style="stop-color:#ffffff;stop-opacity:0;"
         offset="0"
         id="stop9825" />
      <stop
         id="stop9839"
         offset="0.65880156"
         style="stop-color:#ffffff;stop-opacity:1;" />
      <stop
         style="stop-color:#ffffff;stop-opacity:1;"
         offset="1"
         id="stop9823" />
    </linearGradient>
    <linearGradient
       osb:paint="solid"
       id="linearGradient9811">
      <stop
         id="stop9813"
         offset="0"
         style="stop-color:#ff0000;stop-opacity:1;" />
    </linearGradient>
    <linearGradient
       id="linearGradient9577">
      <stop
         style="stop-color:#ffff00;stop-opacity:0;"
         offset="0"
         id="stop9579" />
      <stop
         id="stop9585"
         offset="0.47634166"
         style="stop-color:#ffff00;stop-opacity:0.36923078;" />
      <stop
         style="stop-color:#ffff00;stop-opacity:0;"
         offset="1"
         id="stop9581" />
    </linearGradient>
    <marker
       style="overflow:visible"
       id="Arrow1Mend"
       refX="0"
       refY="0"
       orient="auto"
       inkscape:stockid="Arrow1Mend">
      <path
         transform="matrix(-0.4,0,0,-0.4,-4,0)"
         style="fill-rule:evenodd;stroke:#000000;stroke-width:1pt;marker-start:none"
         d="M 0,0 5,-5 -12.5,0 5,5 0,0 z"
         id="path4226"
         inkscape:connector-curvature="0" />
    </marker>
    <marker
       style="overflow:visible"
       id="Arrow1Lend"
       refX="0"
       refY="0"
       orient="auto"
       inkscape:stockid="Arrow1Lend">
      <path
         transform="matrix(-0.8,0,0,-0.8,-10,0)"
         style="fill-rule:evenodd;stroke:#000000;stroke-width:1pt;marker-start:none"
         d="M 0,0 5,-5 -12.5,0 5,5 0,0 z"
         id="path4220"
         inkscape:connector-curvature="0" />
    </marker>
    <marker
       style="overflow:visible"
       id="Arrow2Mend"
       refX="0"
       refY="0"
       orient="auto"
       inkscape:stockid="Arrow2Mend">
      <path
         transform="scale(-0.6,-0.6)"
         d="M 8.7185878,4.0337352 -2.2072895,0.01601326 8.7185884,-4.0017078 c -1.7454984,2.3720609 -1.7354408,5.6174519 -6e-7,8.035443 z"
         style="font-size:12px;fill-rule:evenodd;stroke-width:0.625;stroke-linejoin:round"
         id="path4244"
         inkscape:connector-curvature="0" />
    </marker>
    <marker
       style="overflow:visible"
       id="Arrow2Lend"
       refX="0"
       refY="0"
       orient="auto"
       inkscape:stockid="Arrow2Lend">
      <path
         transform="matrix(-1.1,0,0,-1.1,-1.1,0)"
         d="M 8.7185878,4.0337352 -2.2072895,0.01601326 8.7185884,-4.0017078 c -1.7454984,2.3720609 -1.7354408,5.6174519 -6e-7,8.035443 z"
         style="font-size:12px;fill-rule:evenodd;stroke-width:0.625;stroke-linejoin:round"
         id="path4238"
         inkscape:connector-curvature="0" />
    </marker>
    <linearGradient
       id="linearGradient4174">
      <stop
         style="stop-color:#fff600;stop-opacity:0;"
         offset="0"
         id="stop4176" />
      <stop
         id="stop4178"
         offset="0.48734948"
         style="stop-color:#fff600;stop-opacity:1;" />
      <stop
         style="stop-color:#fff600;stop-opacity:0;"
         offset="1"
         id="stop4180" />
    </linearGradient>
    <linearGradient
       id="linearGradient4154">
      <stop
         id="stop4156"
         offset="0"
         style="stop-color:#fff600;stop-opacity:0;" />
      <stop
         style="stop-color:#fff600;stop-opacity:1;"
         offset="0.46071422"
         id="stop4162" />
      <stop
         id="stop4158"
         offset="1"
         style="stop-color:#fff600;stop-opacity:0;" />
    </linearGradient>
    <linearGradient
       id="linearGradient3790">
      <stop
         style="stop-color:#0000a0;stop-opacity:0.1923077;"
         offset="0"
         id="stop3794" />
      <stop
         style="stop-color:#00008c;stop-opacity:1"
         offset="1"
         id="stop3792" />
    </linearGradient>
    <filter
       y="-0.25"
       x="-0.25"
       height="1.5"
       width="1.5"
       inkscape:label="Drop shadow"
       id="filter5280"
       color-interpolation-filters="sRGB">
      <feGaussianBlur
         result="blur"
         stdDeviation="3"
         in="SourceAlpha"
         id="feGaussianBlur5282" />
      <feColorMatrix
         values="1 0 0 0 0 0 1 0 0 0 0 0 1 0 0 0 0 0 0.743 0 "
         type="matrix"
         result="bluralpha"
         id="feColorMatrix5284" />
      <feOffset
         result="offsetBlur"
         dy="4"
         dx="4"
         in="bluralpha"
         id="feOffset5286" />
      <feMerge
         id="feMerge5288">
        <feMergeNode
           in="offsetBlur"
           id="feMergeNode5290" />
        <feMergeNode
           in="SourceGraphic"
           id="feMergeNode5292" />
      </feMerge>
    </filter>
    <filter
       color-interpolation-filters="sRGB"
       inkscape:menu-tooltip="Overlays a semi-transparent shifted copy to a blurred one"
       inkscape:menu="Shadows and Glows"
       inkscape:label="Fuzzy Glow"
       id="filter4192">
      <feOffset
         in="SourceGraphic"
         result="result11"
         dy="4"
         dx="4"
         id="feOffset4194" />
      <feGaussianBlur
         result="result8"
         stdDeviation="4"
         id="feGaussianBlur4196" />
      <feComposite
         operator="in"
         in="SourceGraphic"
         result="result9"
         in2="result8"
         id="feComposite4198" />
      <feBlend
         mode="darken"
         in="result9"
         in2="result8"
         id="feBlend4200" />
    </filter>
    <radialGradient
       inkscape:collect="always"
       xlink:href="#linearGradient3790"
       id="radialGradient8749"
       gradientUnits="userSpaceOnUse"
       cx="880.84259"
       cy="187.49409"
       fx="880.84259"
       fy="187.49409"
       r="101.64951" />
    <linearGradient
       inkscape:collect="always"
       xlink:href="#linearGradient4174"
       id="linearGradient8763"
       gradientUnits="userSpaceOnUse"
       x1="795.10229"
       y1="205.04036"
       x2="949.2373"
       y2="205.79126" />
    <radialGradient
       inkscape:collect="always"
       xlink:href="#linearGradient3790"
       id="radialGradient8765"
       gradientUnits="userSpaceOnUse"
       cx="880.84259"
       cy="187.49409"
       fx="880.84259"
       fy="187.49409"
       r="101.64951" />
    <linearGradient
       inkscape:collect="always"
       xlink:href="#linearGradient4174"
       id="linearGradient8771"
       gradientUnits="userSpaceOnUse"
       x1="795.10229"
       y1="205.04036"
       x2="949.2373"
       y2="205.79126" />
    <radialGradient
       inkscape:collect="always"
       xlink:href="#linearGradient3790"
       id="radialGradient8773"
       gradientUnits="userSpaceOnUse"
       cx="880.84259"
       cy="187.49409"
       fx="880.84259"
       fy="187.49409"
       r="101.64951" />
    <linearGradient
       inkscape:collect="always"
       xlink:href="#linearGradient4174"
       id="linearGradient8791"
       gradientUnits="userSpaceOnUse"
       x1="795.10229"
       y1="205.04036"
       x2="949.2373"
       y2="205.79126" />
    <radialGradient
       inkscape:collect="always"
       xlink:href="#linearGradient3790"
       id="radialGradient8793"
       gradientUnits="userSpaceOnUse"
       cx="880.84259"
       cy="187.49409"
       fx="880.84259"
       fy="187.49409"
       r="101.64951" />
    <radialGradient
       inkscape:collect="always"
       xlink:href="#linearGradient3790"
       id="radialGradient8795"
       gradientUnits="userSpaceOnUse"
       cx="880.84259"
       cy="187.49409"
       fx="880.84259"
       fy="187.49409"
       r="101.64951" />
    <linearGradient
       inkscape:collect="always"
       xlink:href="#linearGradient4174"
       id="linearGradient8797"
       gradientUnits="userSpaceOnUse"
       x1="795.10229"
       y1="205.04036"
       x2="949.2373"
       y2="205.79126" />
    <radialGradient
       inkscape:collect="always"
       xlink:href="#linearGradient3790"
       id="radialGradient8799"
       gradientUnits="userSpaceOnUse"
       cx="880.84259"
       cy="187.49409"
       fx="880.84259"
       fy="187.49409"
       r="101.64951" />
    <linearGradient
       inkscape:collect="always"
       xlink:href="#linearGradient4174"
       id="linearGradient8801"
       gradientUnits="userSpaceOnUse"
       x1="795.10229"
       y1="205.04036"
       x2="949.2373"
       y2="205.79126" />
    <radialGradient
       inkscape:collect="always"
       xlink:href="#linearGradient3790"
       id="radialGradient8803"
       gradientUnits="userSpaceOnUse"
       cx="880.84259"
       cy="187.49409"
       fx="880.84259"
       fy="187.49409"
       r="101.64951" />
    <linearGradient
       inkscape:collect="always"
       xlink:href="#linearGradient4174"
       id="linearGradient8805"
       gradientUnits="userSpaceOnUse"
       x1="795.10229"
       y1="205.04036"
       x2="949.2373"
       y2="205.79126" />
    <linearGradient
       inkscape:collect="always"
       xlink:href="#linearGradient9577"
       id="linearGradient9583"
       x1="160"
       y1="644.09448"
       x2="160"
       y2="24.094482"
       gradientUnits="userSpaceOnUse"
       gradientTransform="translate(0,-4)" />
    <linearGradient
       y2="24.094482"
       x2="160"
       y1="644.09448"
       x1="160"
       gradientTransform="translate(0,334.2677)"
       gradientUnits="userSpaceOnUse"
       id="linearGradient9797"
       xlink:href="#linearGradient9577"
       inkscape:collect="always" />
    <linearGradient
       y2="205.79126"
       x2="949.2373"
       y1="205.04036"
       x1="795.10229"
       gradientUnits="userSpaceOnUse"
       id="linearGradient9799"
       xlink:href="#linearGradient4174"
       inkscape:collect="always" />
    <radialGradient
       r="101.64951"
       fy="187.49409"
       fx="880.84259"
       cy="187.49409"
       cx="880.84259"
       gradientUnits="userSpaceOnUse"
       id="radialGradient9801"
       xlink:href="#linearGradient3790"
       inkscape:collect="always" />
    <linearGradient
       y2="205.79126"
       x2="949.2373"
       y1="205.04036"
       x1="795.10229"
       gradientUnits="userSpaceOnUse"
       id="linearGradient9817"
       xlink:href="#linearGradient4174"
       inkscape:collect="always" />
    <radialGradient
       r="101.64951"
       fy="187.49409"
       fx="880.84259"
       cy="187.49409"
       cx="880.84259"
       gradientUnits="userSpaceOnUse"
       id="radialGradient9819"
       xlink:href="#linearGradient3790"
       inkscape:collect="always" />
    <linearGradient
       gradientTransform="matrix(1.0648855,0,0,1,-55.308626,0)"
       gradientUnits="userSpaceOnUse"
       y2="675.82251"
       x2="573.50952"
       y1="671.64655"
       x1="196.41856"
       id="linearGradient9827"
       xlink:href="#linearGradient9821"
       inkscape:collect="always" />
    <linearGradient
       gradientUnits="userSpaceOnUse"
       y2="354.17909"
       x2="877.85212"
       y1="354.17909"
       x1="204.78977"
       id="linearGradient9837"
       xlink:href="#linearGradient9831"
       inkscape:collect="always" />
  </defs>
  <metadata
     id="metadata7">
    <rdf:RDF>
      <cc:Work
         rdf:about="">
        <dc:format>image/svg+xml</dc:format>
        <dc:type
           rdf:resource="http://purl.org/dc/dcmitype/StillImage" />
        <dc:title />
      </cc:Work>
    </rdf:RDF>
  </metadata>
  <g
     inkscape:label="Layer 1"
     inkscape:groupmode="layer"
     id="layer1"
     transform="translate(0,-308.2677)"
     style="display:inline">
    <path
       style="fill:url(#linearGradient9797);fill-opacity:1;stroke:#000000;stroke-width:2;stroke-linecap:butt;stroke-linejoin:miter;stroke-miterlimit:4;stroke-opacity:1;stroke-dasharray:6, 6;stroke-dashoffset:0;display:inline"
       d="m 560,662.36218 -520,-304 0,304 0,316 z"
       id="path9573"
       inkscape:connector-curvature="0"
       sodipodi:nodetypes="ccccc" />
    <path
       style="fill:none;stroke:#000000;stroke-width:2;stroke-linecap:butt;stroke-linejoin:miter;stroke-miterlimit:4;stroke-opacity:1;stroke-dasharray:6, 6;stroke-dashoffset:0"
       d="m 560,662.36218 -520,0"
       id="path9597"
       inkscape:connector-curvature="0" />
    <g
       transform="translate(-208.49571,86.858926)"
       id="g9663">
      <g
         style="font-style:normal;font-variant:normal;font-weight:normal;font-stretch:normal;letter-spacing:normal;word-spacing:normal;text-anchor:start;fill:none;stroke:#000000;stroke-linecap:butt;stroke-linejoin:miter;stroke-miterlimit:10.43299961;stroke-opacity:1;stroke-dasharray:none;stroke-dashoffset:0"
         id="content"
         transform="matrix(1.0629921,0,0,-1.0629921,-186.02362,789.27165)"
         xml:space="preserve"
         stroke-miterlimit="10.433"
         font-style="normal"
         font-variant="normal"
         font-weight="normal"
         font-stretch="normal"
         font-size-adjust="none"
         letter-spacing="normal"
         word-spacing="normal"><path
           style="fill:#000000;stroke-width:0"
           inkscape:connector-curvature="0"
           d="m 478.19,431.11 0,0.31 -0.01,0.34 -0.02,0.36 -0.02,0.37 -0.03,0.39 -0.04,0.39 -0.04,0.41 -0.06,0.41 -0.07,0.42 -0.07,0.43 -0.09,0.42 -0.1,0.43 -0.12,0.42 -0.12,0.42 -0.14,0.41 -0.16,0.41 -0.17,0.4 -0.18,0.38 -0.2,0.37 -0.22,0.36 -0.23,0.34 -0.25,0.32 -0.28,0.3 -0.29,0.27 -0.31,0.25 -0.16,0.12 -0.17,0.1 -0.17,0.1 -0.18,0.1 -0.18,0.08 -0.19,0.08 -0.19,0.07 -0.2,0.06 -0.21,0.05 -0.21,0.05 -0.22,0.03 -0.22,0.02 -0.23,0.02 -0.23,0 -0.05,-1.09 c 2.44,0 2.73,-3.19 2.73,-6.03 0,-2.44 -0.39,-4.99 -1.59,-9.92 h -10.41 c 0.85,3.2 1.85,7.18 3.83,10.72 1.36,2.43 3.19,5.23 5.44,5.23 l 0.05,1.09 c -6.92,0 -14.6,-14.04 -14.6,-25.45 0,-4.69 1.44,-10.22 5.99,-10.22 v 1.1 c -1.66,0 -2.71,1.45 -2.71,6.07 0,2.1 0.3,4.99 1.6,9.86 h 10.37 c -0.54,-2.28 -1.59,-6.51 -3.5,-10.11 -1.73,-3.39 -3.62,-5.82 -5.76,-5.82 v -1.1 c 7.01,0 14.59,14.3 14.59,25.46 z"
           id="path9666" /><path
           style="fill:#000000;stroke-width:0"
           inkscape:connector-curvature="0"
           d="m 507.56,409.32 0,0.28 -0.02,0.28 -0.02,0.26 -0.03,0.26 -0.04,0.25 -0.05,0.24 -0.06,0.24 -0.07,0.22 -0.08,0.22 -0.09,0.21 -0.1,0.2 -0.11,0.19 -0.12,0.19 -0.13,0.17 -0.14,0.17 -0.15,0.16 -0.17,0.15 -0.17,0.14 -0.18,0.13 -0.2,0.12 -0.21,0.12 -0.22,0.1 -0.23,0.09 -0.24,0.09 -0.26,0.07 -0.26,0.07 -0.28,0.05 -0.29,0.05 -0.31,0.03 -0.31,0.03 -0.33,0.02 -0.35,0 c -2.76,0 -4.64,-1.48 -5.57,-3.23 -0.71,2.47 -2.58,3.23 -5.13,3.23 -2.86,0 -4.7,-1.56 -5.69,-3.37 h -0.03 v 3.37 l -5.12,-0.37 v -1.25 c 2.34,0 2.62,-0.25 2.62,-1.96 v -9.03 c 0,-1.5 -0.36,-1.5 -2.62,-1.5 v -1.25 c 0.08,0 2.51,0.14 3.98,0.14 1.28,0 3.69,-0.11 4,-0.14 v 1.25 c -2.26,0 -2.61,0 -2.61,1.5 v 6.28 c 0,3.66 2.89,5.36 5.19,5.36 2.44,0 2.75,-1.92 2.75,-3.69 v -7.95 c 0,-1.5 -0.34,-1.5 -2.61,-1.5 v -1.25 c 0.08,0 2.52,0.14 3.97,0.14 1.3,0 3.7,-0.11 4.01,-0.14 v 1.25 c -2.26,0 -2.62,0 -2.62,1.5 v 6.28 c 0,3.66 2.91,5.36 5.2,5.36 2.44,0 2.75,-1.92 2.75,-3.69 v -7.95 c 0,-1.5 -0.34,-1.5 -2.61,-1.5 v -1.25 c 0.07,0 2.5,0.14 3.97,0.14 1.28,0 3.69,-0.11 4,-0.14 v 1.25 c -2.26,0 -2.61,0 -2.61,1.5 z"
           id="path9668" /></g>    </g>
    <path
       transform="translate(0,308.2677)"
       inkscape:connector-curvature="0"
       id="path9803"
       d="m 206.01799,146.9207 -122.497182,0"
       style="fill:none;stroke:#000000;stroke-width:1px;stroke-linecap:butt;stroke-linejoin:miter;stroke-opacity:1" />
    <path
       sodipodi:nodetypes="cc"
       transform="translate(0,308.2677)"
       inkscape:connector-curvature="0"
       id="path9805"
       d="m 103.009,87.064125 c 2.22602,2.74062 -33.501474,25.594025 -15.312151,57.072555"
       style="fill:none;stroke:#000000;stroke-width:1px;stroke-linecap:butt;stroke-linejoin:miter;stroke-opacity:1" />
    <rect
       y="423.17209"
       x="167.0416"
       height="505.3009"
       width="388.37177"
       id="rect9807"
       style="fill:url(#linearGradient9827);fill-opacity:1;stroke:none" />
    <path
       inkscape:connector-curvature="0"
       id="path3088"
       d="m 780,412.36218 0,120 120,0"
       style="fill:none;stroke:#000000;stroke-width:4.5;stroke-linecap:butt;stroke-linejoin:miter;stroke-miterlimit:4;stroke-opacity:1;stroke-dasharray:none;marker-start:url(#Arrow2Mstart);marker-end:url(#Arrow2Mend)" />
    <g
       id="g5587"
       transform="matrix(1.0047513,0,0,1.0047513,569.00733,214.56786)">
      <g
         word-spacing="normal"
         letter-spacing="normal"
         font-size-adjust="none"
         font-stretch="normal"
         font-weight="normal"
         font-variant="normal"
         font-style="normal"
         stroke-miterlimit="10.433"
         xml:space="preserve"
         transform="matrix(1.0629921,0,0,-1.0629921,-186.02362,789.27165)"
         id="g5589"
         style="font-style:normal;font-variant:normal;font-weight:normal;font-stretch:normal;letter-spacing:normal;word-spacing:normal;text-anchor:start;fill:none;stroke:#000000;stroke-linecap:butt;stroke-linejoin:miter;stroke-miterlimit:10.43299961;stroke-opacity:1;stroke-dasharray:none;stroke-dashoffset:0"><path
           id="path5591"
           d="m 462.14,410.34 0.25,0.27 0.24,0.25 0.24,0.25 0.23,0.24 0.22,0.23 0.22,0.22 0.21,0.22 0.2,0.21 0.2,0.2 0.2,0.19 0.19,0.19 0.19,0.19 0.18,0.17 0.19,0.18 0.35,0.33 0.34,0.32 0.33,0.3 0.33,0.29 0.32,0.29 0.65,0.56 0.33,0.29 0.33,0.28 c 0,0.05 3.08,2.69 4.88,4.49 4.73,4.64 5.83,7.03 5.83,7.21 0,0.5 -0.46,0.5 -0.55,0.5 -0.35,0 -0.5,-0.09 -0.75,-0.54 -1.49,-2.39 -2.53,-3.19 -3.74,-3.19 -1.2,0 -1.79,0.75 -2.54,1.59 -0.94,1.16 -1.78,2.14 -3.44,2.14 -3.73,0 -6.02,-4.62 -6.02,-5.67 0,-0.25 0.14,-0.54 0.6,-0.54 0.45,0 0.54,0.25 0.64,0.54 0.95,2.3 3.84,2.35 4.23,2.35 1.05,0 2,-0.36 3.14,-0.75 2,-0.75 2.55,-0.75 3.85,-0.75 -1.8,-2.14 -5.99,-5.74 -6.92,-6.53 l -4.49,-4.18 c -3.39,-3.34 -5.14,-6.18 -5.14,-6.53 0,-0.5 0.5,-0.5 0.59,-0.5 0.41,0 0.5,0.1 0.8,0.64 1.16,1.75 2.64,3.1 4.24,3.1 1.15,0 1.65,-0.46 2.89,-1.89 0.86,-1.05 1.75,-1.85 3.18,-1.85 4.94,0 7.83,6.33 7.83,7.67 0,0.25 -0.2,0.5 -0.59,0.5 -0.46,0 -0.55,-0.29 -0.71,-0.65 -1.14,-3.24 -4.32,-4.17 -5.98,-4.17 -0.98,0 -1.89,0.29 -2.94,0.64 -1.68,0.64 -2.43,0.84 -3.48,0.84 -0.1,0 -0.89,0 -1.35,-0.14 z"
           inkscape:connector-curvature="0"
           style="fill:#000000;stroke-width:0" /></g>    </g>
    <g
       id="g6082"
       transform="translate(436.86103,82.403913)">
      <g
         word-spacing="normal"
         letter-spacing="normal"
         font-size-adjust="none"
         font-stretch="normal"
         font-weight="normal"
         font-variant="normal"
         font-style="normal"
         stroke-miterlimit="10.433"
         xml:space="preserve"
         transform="matrix(1.0629921,0,0,-1.0629921,-186.02362,789.27165)"
         id="g6084"
         style="font-style:normal;font-variant:normal;font-weight:normal;font-stretch:normal;letter-spacing:normal;word-spacing:normal;text-anchor:start;fill:none;stroke:#000000;stroke-linecap:butt;stroke-linejoin:miter;stroke-miterlimit:10.43299961;stroke-opacity:1;stroke-dasharray:none;stroke-dashoffset:0"><path
           id="path6086"
           d="m 472.16,421.25 0.03,0.13 0.04,0.15 0.04,0.16 0.04,0.18 0.06,0.19 0.06,0.21 0.06,0.22 0.07,0.22 0.08,0.23 0.09,0.24 0.1,0.25 0.1,0.24 0.11,0.25 0.12,0.25 0.13,0.25 0.14,0.25 0.15,0.24 0.15,0.24 0.17,0.23 0.18,0.22 0.18,0.22 0.2,0.2 0.21,0.19 0.22,0.18 0.23,0.16 0.25,0.14 0.12,0.07 0.13,0.06 0.14,0.05 0.13,0.05 0.14,0.05 0.14,0.04 0.15,0.03 0.15,0.03 0.15,0.02 0.16,0.02 0.16,0.01 0.16,0 c 0.25,0 1.44,0 2.48,-0.64 -1.39,-0.25 -2.39,-1.5 -2.39,-2.69 0,-0.79 0.55,-1.75 1.89,-1.75 1.1,0 2.69,0.89 2.69,2.89 0,2.6 -2.94,3.28 -4.63,3.28 -2.89,0 -4.64,-2.64 -5.23,-3.78 -1.25,3.28 -3.94,3.78 -5.37,3.78 -5.19,0 -8.04,-6.42 -8.04,-7.67 0,-0.5 0.5,-0.5 0.61,-0.5 0.39,0 0.55,0.11 0.64,0.55 1.69,5.28 4.99,6.53 6.68,6.53 0.95,0 2.68,-0.44 2.68,-3.33 0,-1.54 -0.84,-4.89 -2.68,-11.86 -0.8,-3.09 -2.54,-5.18 -4.74,-5.18 -0.3,0 -1.44,0 -2.48,0.65 1.25,0.24 2.34,1.28 2.34,2.69 0,1.34 -1.09,1.73 -1.84,1.73 -1.5,0 -2.75,-1.29 -2.75,-2.89 0,-2.28 2.5,-3.28 4.68,-3.28 3.3,0 5.08,3.49 5.24,3.78 0.59,-1.84 2.39,-3.78 5.37,-3.78 5.14,0 7.99,6.42 7.99,7.67 0,0.5 -0.45,0.5 -0.61,0.5 -0.44,0 -0.55,-0.2 -0.64,-0.54 -1.64,-5.33 -5.03,-6.53 -6.63,-6.53 -1.95,0 -2.75,1.59 -2.75,3.29 0,1.1 0.3,2.19 0.86,4.38 z"
           inkscape:connector-curvature="0"
           style="fill:#000000;stroke-width:0" /></g>    </g>
  </g>
  <g
     inkscape:label="Beam"
     id="layer2"
     inkscape:groupmode="layer"
     style="display:inline">
    <g
       id="g7033"
       transform="matrix(0.79782097,0,0,0.79782097,260.29383,291.82753)"
       style="fill:#ff0000;fill-opacity:1;stroke:none">
      <g
         word-spacing="normal"
         letter-spacing="normal"
         font-size-adjust="none"
         font-stretch="normal"
         font-weight="normal"
         font-variant="normal"
         font-style="normal"
         stroke-miterlimit="10.433"
         xml:space="preserve"
         transform="matrix(1.0629921,0,0,-1.0629921,-186.02362,789.27165)"
         id="g7035"
         style="font-style:normal;font-variant:normal;font-weight:normal;font-stretch:normal;letter-spacing:normal;word-spacing:normal;text-anchor:start;fill:#ff0000;fill-opacity:1;stroke:none"><path
           id="path7037"
           d="m 469.82,440.23 0,0 0,0.01 0,0 0,0.01 -0.01,0.02 0,0.01 0,0.02 0,0.02 0,0.02 -0.01,0.02 0,0.02 -0.01,0.02 -0.01,0.02 -0.01,0.03 -0.01,0.02 -0.01,0.03 -0.01,0.02 -0.02,0.03 -0.02,0.02 -0.02,0.02 -0.02,0.03 -0.01,0.01 -0.01,0.01 -0.02,0.01 -0.01,0.01 -0.02,0.01 -0.01,0.01 -0.02,0.01 -0.01,0.01 -0.02,0.01 -0.02,0.01 -0.02,0 -0.02,0.01 -0.02,0.01 -0.02,0 -0.02,0.01 -0.02,0.01 -0.03,0 -0.02,0 -0.03,0.01 -0.02,0 -0.03,0 -0.03,0.01 -0.02,0 -0.03,0 c -1.16,0 -4.79,-0.41 -6.08,-0.5 -0.41,-0.05 -0.96,-0.1 -0.96,-1 0,-0.6 0.46,-0.6 1.21,-0.6 2.39,0 2.48,-0.34 2.48,-0.84 l -0.15,-1 -7.22,-28.7 c -0.21,-0.69 -0.21,-0.8 -0.21,-1.1 0,-1.14 1,-1.39 1.46,-1.39 0.64,0 1.39,0.46 1.68,1.05 0.25,0.45 2.5,9.66 2.8,10.91 1.69,-0.15 5.78,-0.94 5.78,-4.24 0,-0.34 0,-0.55 -0.15,-1.05 -0.1,-0.59 -0.21,-1.18 -0.21,-1.73 0,-2.95 2,-4.94 4.6,-4.94 1.48,0 2.83,0.8 3.93,2.64 1.24,2.19 1.79,4.94 1.79,5.03 0,0.5 -0.44,0.5 -0.6,0.5 -0.5,0 -0.54,-0.2 -0.7,-0.9 -0.99,-3.63 -2.14,-6.17 -4.33,-6.17 -0.94,0 -1.59,0.54 -1.59,2.34 0,0.84 0.2,1.98 0.4,2.78 0.19,0.86 0.19,1.05 0.19,1.55 0,3.25 -3.14,4.69 -7.37,5.23 1.54,0.91 3.14,2.5 4.29,3.69 2.39,2.64 4.67,4.78 7.13,4.78 0.29,0 0.34,0 0.44,-0.05 0.6,-0.09 0.65,-0.09 1.04,-0.39 0.11,-0.06 0.11,-0.11 0.21,-0.2 -2.4,-0.16 -2.85,-2.09 -2.85,-2.69 0,-0.79 0.55,-1.75 1.89,-1.75 1.3,0 2.75,1.1 2.75,3.03 0,1.5 -1.15,3.14 -3.39,3.14 -1.39,0 -3.69,-0.39 -7.28,-4.37 -1.69,-1.89 -3.62,-3.89 -5.52,-4.64 z"
           inkscape:connector-curvature="0"
           style="fill:#ff0000;fill-opacity:1;stroke:none" /><path
           id="path7039"
           d="m 484.88,418.59 -0.02,-0.05 -0.01,-0.04 -0.01,-0.05 -0.01,-0.04 0,-0.04 -0.01,-0.04 -0.01,-0.03 -0.01,-0.04 0,-0.03 -0.01,-0.03 0,-0.03 -0.01,-0.03 0,-0.03 -0.01,-0.02 0,-0.03 0,-0.02 -0.01,-0.02 0,-0.02 0,-0.02 0,-0.01 0,-0.02 -0.01,-0.01 0,-0.02 0,-0.01 0,-0.01 0,-0.01 0,-0.01 0,-0.01 0,0 0,-0.01 0,0 0,0 c 0,-0.77 0.63,-1.11 1.17,-1.11 1.27,0 1.53,1.14 1.67,1.73 0.08,0.17 0.77,2.97 1.61,6.38 1.08,-0.72 2.47,-1 3.74,-1 2.98,0 4.94,2.43 5.01,2.5 0.66,-2.41 3.07,-2.5 3.58,-2.5 1.27,0 2.13,0.76 2.77,1.84 0.76,1.36 1.22,3.34 1.22,3.48 0,0.46 -0.46,0.46 -0.57,0.46 -0.48,0 -0.53,-0.14 -0.76,-1.08 -0.42,-1.67 -1.08,-3.74 -2.55,-3.74 -0.91,0 -1.16,0.77 -1.16,1.71 0,0.59 0.29,1.86 0.54,2.76 0.25,0.94 0.59,2.36 0.76,3.13 l 0.8,3.11 c 0.22,0.87 0.59,2.4 0.59,2.58 0,0.68 -0.55,1.1 -1.14,1.1 -0.39,0 -1.05,-0.17 -1.44,-0.82 -0.11,-0.22 -0.37,-1.33 -0.56,-2.03 l -0.72,-2.9 -1.08,-4.35 c -0.25,-0.86 -0.25,-0.94 -0.56,-1.4 -1.08,-1.53 -2.61,-2.89 -4.61,-2.89 -2.84,0 -2.84,2.47 -2.84,3.11 0,0.91 0.09,1.36 0.59,3.24 0.35,1.53 0.41,1.78 0.77,3.14 l 0.48,1.95 c 0.17,0.72 0.52,2.05 0.52,2.19 0,0.62 -0.49,1.11 -1.19,1.11 -1.25,0 -1.56,-1.22 -1.67,-1.63 z"
           inkscape:connector-curvature="0"
           style="fill:#ff0000;fill-opacity:1;stroke:none" /></g>    </g>
    <path
       style="fill:none;stroke:#ff0000;stroke-width:3.71199989;stroke-linecap:butt;stroke-linejoin:miter;stroke-miterlimit:4;stroke-opacity:1;stroke-dasharray:none;marker-end:none"
       d="m 552.77802,563.90583 c 11.43387,-0.79471 11.77832,5.45407 22.95197,6.0757 2.59082,0.0516 12.2044,-9.193 16.36428,-9.1517 4.15987,0.0413 14.16687,9.36847 18.87402,9.33752 4.70716,-0.031 14.08579,-9.42012 18.31847,-9.58531 4.99015,-0.19474 7.78155,7.69921 12.31682,8.66194 4.53526,0.96273 10.81438,-5.00579 10.81438,-5.00579 l 21.13694,0"
       id="path7118"
       inkscape:connector-curvature="0"
       sodipodi:nodetypes="ccsssscc" />
    <path
       style="fill:#ff0000;fill-opacity:1;stroke:#000000;stroke-width:1px;stroke-linecap:butt;stroke-linejoin:miter;stroke-opacity:1"
       d="m 661.67713,556.55365 0,16.93617 16.93616,-9.20276 z"
       id="path9559"
       inkscape:connector-curvature="0" />
    <path
       id="path8675"
       title="sin(x/12)**2*sin(x)"
       d="m 205.93427,354.17954 c 2.25849,0 4.51699,-8.1e-4 6.77548,-0.0706 2.2585,-0.0692 4.51699,-0.20925 6.77549,-0.45369 2.25849,-0.24434 4.51699,-0.59422 6.77549,-1.02819 2.2585,-0.43395 4.51699,-0.95166 6.77549,-1.47117 2.25849,-0.51954 4.51699,-1.03915 6.77549,-1.43257 2.25849,-0.3934 4.51699,-0.65785 6.77549,-0.65668 2.2585,7.8e-4 4.51698,0.27093 6.77549,0.9118 2.25849,0.64089 4.51699,1.65544 6.77548,3.06862 2.2585,1.41316 4.517,3.22623 6.77549,5.3566 2.2585,2.13037 4.51699,4.57757 6.77549,7.14492 2.2585,2.56738 4.517,5.25246 6.77549,7.76711 2.2585,2.51463 4.51699,4.85474 6.77549,6.69087 2.25849,1.83617 4.51699,3.16329 6.77549,3.68106 2.2585,0.51769 4.51699,0.22113 6.77548,-1.08477 2.2585,-1.30591 4.51699,-3.6248 6.7755,-6.98011 2.25849,-3.35532 4.51699,-7.74854 6.77548,-12.99263 2.2585,-5.24412 4.51699,-11.33763 6.77549,-17.88327 2.2585,-6.54564 4.51699,-13.53895 6.77549,-20.41731 2.2585,-6.87837 4.51699,-13.63489 6.77548,-19.62752 2.25851,-5.99261 4.517,-11.21311 6.7755,-15.05448 2.25849,-3.84135 4.51699,-6.29556 6.77549,-6.91365 2.25849,-0.61809 4.51699,0.60612 6.77548,3.85538 2.2585,3.24926 4.517,8.52653 6.7755,15.67807 2.25849,7.15157 4.51698,16.1763 6.77548,26.56953 2.2585,10.39324 4.51699,22.14952 6.77549,34.46297 2.25849,12.31344 4.517,25.17484 6.77548,37.58778 2.2585,12.41296 4.517,24.36587 6.77549,34.82865 2.25851,10.46272 4.517,19.42332 6.7755,25.99557 2.25848,6.57225 4.51699,10.74597 6.77548,11.9472 2.2585,1.20123 4.51699,-0.57659 6.77549,-5.46812 2.2585,-4.89145 4.51699,-12.89802 6.77549,-23.65485 2.25849,-10.75679 4.51699,-24.25946 6.77549,-39.66613 2.2585,-15.4067 4.51699,-32.70763 6.77549,-50.69032 2.25849,-17.98269 4.51699,-36.6335 6.77548,-54.54646 2.2585,-17.91293 4.51699,-35.07257 6.7755,-50.10079 2.25849,-15.02826 4.51698,-27.91036 6.77548,-37.52546 2.25849,-9.61512 4.517,-15.95181 6.77549,-18.34483 2.2585,-2.39297 4.51699,-0.83625 6.77549,4.74801 2.25849,5.58428 4.51699,15.19542 6.77548,28.28386 2.2585,13.08846 4.517,29.64671 6.7755,48.56021 2.25849,18.91351 4.51698,40.16894 6.77549,62.2449 2.25849,22.07596 4.51699,44.95536 6.77548,66.94028 2.2585,21.98495 4.517,43.05739 6.77549,61.60917 2.25849,18.55182 4.51699,34.56689 6.77549,46.78567 2.2585,12.21884 4.51699,20.62998 6.77549,24.53033 2.25849,3.90037 4.51699,3.28526 6.77549,-1.87029 2.25849,-5.15555 4.51699,-14.84869 6.77548,-28.41216 2.25851,-13.56347 4.51699,-30.9873 6.77549,-51.0096 2.2585,-20.02234 4.51699,-42.62762 6.77549,-66.15336 2.2585,-23.5257 4.517,-47.95325 6.77548,-71.47899 2.25851,-23.5257 4.517,-46.13099 6.7755,-66.15329 2.25849,-20.02234 4.51699,-37.44617 6.77549,-51.00965 2.2585,-13.56345 4.51699,-23.25661 6.77548,-28.41215 2.2585,-5.15552 4.517,-5.77067 6.7755,-1.87029 2.25849,3.90037 4.51699,12.31152 6.77548,24.53029 2.2585,12.21882 4.51699,28.2339 6.77549,46.7857 2.25849,18.55179 4.517,39.62423 6.77549,61.60918 2.25849,21.98493 4.51699,44.86434 6.77548,66.94026 2.25851,22.07597 4.517,43.3314 6.7755,62.2449 2.25849,18.91352 4.51699,35.47178 6.77548,48.56023 2.2585,13.08847 4.51699,22.69956 6.77549,28.28386 2.2585,5.58428 4.517,7.14095 6.77549,4.74801 2.25849,-2.39302 4.517,-8.72972 6.77549,-18.34484 2.2585,-9.61508 4.51699,-22.49719 6.77549,-37.52545 2.2585,-15.02822 4.51699,-32.18786 6.77548,-50.1008 2.2585,-17.91294 4.517,-36.56376 6.7755,-54.54645 2.25849,-17.98269 4.51699,-35.28364 6.77548,-50.69033 2.2585,-15.40665 4.517,-28.90934 6.77549,-39.66613 2.2585,-10.75682 4.51699,-18.76338 6.7755,-23.65484 2.25848,-4.89154 4.51698,-6.66935 6.77548,-5.46812 2.25849,1.2012 4.51699,5.37495 6.77549,11.94721 2.2585,6.57224 4.51699,15.53283 6.77549,25.99558 2.25849,10.46272 4.51699,22.41566 6.77548,34.82863 2.2585,12.41292 4.517,25.27433 6.7755,37.58778 2.25849,12.31345 4.51698,24.06973 6.77548,34.46297 2.2585,10.39323 4.517,19.41794 6.77549,26.56953 2.2585,7.15154 4.51699,12.42881 6.77549,15.67808 2.25849,3.24923 4.51699,4.47345 6.77548,3.85539 2.25851,-0.61811 4.517,-3.07231 6.77549,-6.91365 2.2585,-3.84139 4.517,-9.06192 6.7755,-15.0545 2.25849,-5.99263 4.51699,-12.74915 6.77548,-19.62753 2.25851,-6.87835 4.51699,-13.87166 6.77549,-20.41729 2.25849,-6.54566 4.51699,-12.63916 6.77549,-17.88329 2.2585,-5.24408 4.51699,-9.6373 6.77548,-12.99263 2.2585,-3.35531 4.517,-5.67418 6.7755,-6.9801 2.25849,-1.30586 4.51699,-1.60246 6.77549,-1.08474 2.25849,0.51775 4.51698,1.84486 6.77548,3.68102 2.25849,1.83614 4.517,4.17624 6.77549,6.69088 2.2585,2.51463 4.51699,5.19972 6.77549,7.76711 2.2585,2.56734 4.51699,5.01454 6.77549,7.14491 2.25849,2.13038 4.517,3.94343 6.77549,5.35662 2.25849,1.41315 4.51698,2.4277 6.77548,3.06861 2.2585,0.64086 4.517,0.91067 6.77549,0.9118 2.2585,7.9e-4 4.517,-0.26328 6.77549,-0.65668 2.2585,-0.39341 4.51699,-0.91303 6.77549,-1.43255 2.2585,-0.51954 4.517,-1.03725 6.77548,-1.47119 2.2585,-0.43397 4.517,-0.78383 6.7755,-1.0282 2.25849,-0.24436 4.51699,-0.38417 6.77549,-0.45365 2.25849,-0.0693 4.51699,-0.0707 6.77548,-0.0707"
       style="fill:none;stroke:#ff0000;stroke-width:3.75574684;stroke-miterlimit:4;stroke-opacity:1;stroke-dasharray:none;stroke-dashoffset:0;display:inline"
       inkscape:connector-curvature="0" />
    <path
       inkscape:connector-curvature="0"
       style="fill:url(#linearGradient9837);stroke:#0000ff;stroke-width:2.28900002999999996;stroke-miterlimit:4;stroke-opacity:1;stroke-dasharray:6.86699999999999999, 6.86699999999999999;stroke-dashoffset:0;display:inline"
       d="m 876.70762,354.17943 c -2.25849,0 -4.51699,-5e-5 -6.77549,-0.005 -2.25849,-0.004 -4.51699,-0.0142 -6.77548,-0.0309 -2.2585,-0.0166 -4.517,-0.0404 -6.7755,-0.0699 -2.25849,-0.0295 -4.51698,-0.0647 -6.77548,-0.10003 -2.2585,-0.0353 -4.51699,-0.0706 -6.77549,-0.0974 -2.25849,-0.0268 -4.517,-0.0447 -6.77549,-0.0447 -2.2585,5e-5 -4.51699,0.0184 -6.77549,0.062 -2.2585,0.0436 -4.51699,0.11255 -6.77549,0.20863 -2.25849,0.0961 -4.517,0.21934 -6.77548,0.36418 -2.2585,0.14484 -4.51699,0.31122 -6.77549,0.48577 -2.2585,0.17455 -4.517,0.3571 -6.77549,0.52807 -2.2585,0.17096 -4.517,0.33007 -6.77549,0.4549 -2.2585,0.12483 -4.51699,0.21506 -6.77549,0.25027 -2.2585,0.0352 -4.517,0.0151 -6.77548,-0.0738 -2.2585,-0.0888 -4.517,-0.24644 -6.7755,-0.47456 -2.25849,-0.22812 -4.51699,-0.5268 -6.77549,-0.88334 -2.25849,-0.35654 -4.51699,-0.77082 -6.77548,-1.21585 -2.2585,-0.44502 -4.51699,-0.92049 -6.7755,-1.38813 -2.25849,-0.46764 -4.51698,-0.92701 -6.77547,-1.33443 -2.2585,-0.40743 -4.517,-0.76236 -6.7755,-1.02353 -2.2585,-0.26116 -4.51699,-0.42802 -6.77549,-0.47004 -2.25849,-0.042 -4.51699,0.0412 -6.77548,0.26212 -2.2585,0.22091 -4.517,0.5797 -6.7755,1.06591 -2.25849,0.48623 -4.51698,1.0998 -6.77548,1.80641 -2.2585,0.70662 -4.51699,1.5059 -6.77549,2.34307 -2.2585,0.83717 -4.517,1.71159 -6.77549,2.55552 -2.25849,0.84393 -4.51699,1.65658 -6.77548,2.36792 -2.25851,0.71135 -4.517,1.32056 -6.7755,1.76739 -2.25849,0.44684 -4.51699,0.7306 -6.77548,0.81227 -2.2585,0.0817 -4.517,-0.0392 -6.77549,-0.37177 -2.2585,-0.33256 -4.51699,-0.87691 -6.77549,-1.60824 -2.25849,-0.73133 -4.51699,-1.64936 -6.77549,-2.69682 -2.2585,-1.04747 -4.51699,-2.22373 -6.77549,-3.44634 -2.25849,-1.2226 -4.51699,-2.49063 -6.77549,-3.70849 -2.25849,-1.21787 -4.51699,-2.38452 -6.77549,-3.40626 -2.2585,-1.02174 -4.51698,-1.89757 -6.77548,-2.55128 -2.25849,-0.65371 -4.517,-1.08452 -6.77549,-1.24722 -2.2585,-0.16269 -4.51699,-0.0569 -6.77549,0.32281 -2.2585,0.37966 -4.51699,1.0331 -6.77549,1.92295 -2.25849,0.88987 -4.517,2.01562 -6.77549,3.30152 -2.25849,1.28589 -4.51698,2.731 -6.77549,4.2319 -2.25849,1.5009 -4.51699,3.05642 -6.77548,4.55113 -2.2585,1.49472 -4.517,2.92738 -6.77549,4.18869 -2.2585,1.26129 -4.51699,2.35013 -6.77549,3.18086 -2.2585,0.83073 -4.517,1.40259 -6.77549,1.66777 -2.25849,0.26517 -4.51699,0.22335 -6.77549,-0.12716 -2.25849,-0.35052 -4.51699,-1.00954 -6.77549,-1.93169 -2.2585,-0.92215 -4.51699,-2.10676 -6.77548,-3.46803 -2.2585,-1.36129 -4.51699,-2.89817 -6.7755,-4.49764 -2.25849,-1.59946 -4.51699,-3.26024 -6.77548,-4.85971 -2.2585,-1.59946 -4.51699,-3.13635 -6.77549,-4.49763 -2.2585,-1.36127 -4.51699,-2.54588 -6.77549,-3.46804 -2.2585,-0.92216 -4.51699,-1.58117 -6.77548,-1.93168 -2.2585,-0.35052 -4.517,-0.39234 -6.7755,-0.12716 -2.25849,0.26518 -4.51699,0.83703 -6.77548,1.66777 -2.2585,0.83073 -4.517,1.91956 -6.77549,3.18086 -2.2585,1.2613 -4.517,2.69397 -6.7755,4.18868 -2.25848,1.49471 -4.51698,3.05024 -6.77547,4.55113 -2.25851,1.5009 -4.517,2.94602 -6.7755,4.23191 -2.25849,1.28589 -4.51699,2.41165 -6.77549,3.30151 -2.25849,0.88986 -4.51699,1.5433 -6.77548,1.92296 -2.25851,0.37966 -4.517,0.4855 -6.7755,0.3228 -2.25848,-0.16269 -4.51699,-0.59351 -6.77548,-1.24722 -2.2585,-0.65371 -4.51699,-1.52954 -6.77549,-2.55128 -2.2585,-1.02174 -4.51699,-2.18838 -6.77549,-3.40625 -2.25849,-1.21786 -4.51699,-2.4859 -6.77549,-3.70851 -2.2585,-1.2226 -4.51699,-2.39885 -6.77548,-3.44633 -2.2585,-1.04746 -4.517,-1.96548 -6.77549,-2.69682 -2.2585,-0.73132 -4.517,-1.27568 -6.7755,-1.60823 -2.25849,-0.33257 -4.51698,-0.45345 -6.77548,-0.37177 -2.25849,0.0817 -4.517,0.36543 -6.77549,0.81226 -2.2585,0.44684 -4.51699,1.05605 -6.77549,1.76739 -2.25849,0.71134 -4.51699,1.52399 -6.77549,2.36793 -2.25849,0.84393 -4.51699,1.71835 -6.77549,2.55551 -2.25849,0.83717 -4.51698,1.63645 -6.77548,2.34307 -2.2585,0.70661 -4.517,1.32018 -6.77549,1.80641 -2.2585,0.48621 -4.51699,0.84501 -6.77549,1.06592 -2.25849,0.22091 -4.51699,0.30414 -6.77549,0.26211 -2.2585,-0.042 -4.517,-0.20887 -6.77548,-0.47004 -2.2585,-0.26117 -4.51699,-0.61609 -6.7755,-1.02352 -2.25849,-0.40743 -4.51699,-0.86679 -6.77548,-1.33443 -2.25851,-0.46765 -4.51699,-0.94311 -6.77549,-1.38814 -2.2585,-0.44502 -4.51699,-0.85931 -6.77549,-1.21585 -2.2585,-0.35653 -4.517,-0.65521 -6.77548,-0.88333 -2.25851,-0.22813 -4.517,-0.38579 -6.7755,-0.47457 -2.25849,-0.0888 -4.51699,-0.10895 -6.77549,-0.0737 -2.25849,0.0352 -4.51699,0.12543 -6.77548,0.25027 -2.2585,0.12483 -4.517,0.28393 -6.7755,0.4549 -2.25849,0.17096 -4.51698,0.35351 -6.77548,0.52807 -2.2585,0.17454 -4.51699,0.34093 -6.77549,0.48576 -2.25849,0.14484 -4.517,0.26811 -6.77549,0.36419 -2.25849,0.0961 -4.51699,0.16505 -6.77548,0.20863 -2.25851,0.0436 -4.517,0.0619 -6.7755,0.062 -2.25849,5e-5 -4.51699,-0.0179 -6.77548,-0.0447 -2.2585,-0.0267 -4.51699,-0.0621 -6.7755,-0.0974 -2.25849,-0.0353 -4.51699,-0.0705 -6.77548,-0.10002 -2.25849,-0.0295 -4.517,-0.0533 -6.77549,-0.0699 -2.2585,-0.0166 -4.51699,-0.0261 -6.77549,-0.0308 -2.25849,-0.005 -4.51699,-0.005 -6.77548,-0.005"
       title="sin(x/12)**2*sin(x)"
       id="path8747" />
  </g>
  <g
     inkscape:label="Electrons"
     id="layer3"
     inkscape:groupmode="layer"
     style="display:inline">
    <g
       transform="translate(632.93098,-229.33733)"
       id="g4037">
      <g
         style="font-style:normal;font-variant:normal;font-weight:normal;font-stretch:normal;letter-spacing:normal;word-spacing:normal;text-anchor:start;fill:none;stroke:#000000;stroke-linecap:butt;stroke-linejoin:miter;stroke-miterlimit:10.43299961;stroke-opacity:1;stroke-dasharray:none;stroke-dashoffset:0"
         word-spacing="normal"
         letter-spacing="normal"
         font-size-adjust="none"
         font-stretch="normal"
         font-weight="normal"
         font-variant="normal"
         font-style="normal"
         stroke-miterlimit="10.433"
         xml:space="preserve"
         transform="matrix(1.0629921,0,0,-1.0629921,-186.02362,789.27165)"
         id="g9681" />    </g>
    <path
       inkscape:connector-curvature="0"
       id="path4210"
       d="m 984.91306,358.84886 49.21634,0"
       style="fill:none;stroke:#000000;stroke-width:0.92118895;stroke-linecap:butt;stroke-linejoin:miter;stroke-miterlimit:4;stroke-opacity:1;stroke-dasharray:11.05426714, 11.05426714;stroke-dashoffset:0" />
    <path
       inkscape:connector-curvature="0"
       id="path4212"
       d="m 946.6528,353.25367 -44.01863,0"
       style="fill:none;stroke:#000000;stroke-width:3.35084796;stroke-linecap:butt;stroke-linejoin:miter;stroke-miterlimit:4;stroke-opacity:1;stroke-dasharray:none;marker-end:url(#Arrow2Mend)" />
    <text
       sodipodi:linespacing="125%"
       id="text6574"
       y="328.84094"
       x="952.53149"
       style="font-size:31.91283798px;font-style:normal;font-weight:normal;line-height:125%;letter-spacing:0px;word-spacing:0px;fill:#000000;fill-opacity:1;stroke:none;font-family:Sans"
       xml:space="preserve"><tspan
         y="328.84094"
         x="952.53149"
         id="tspan6576"
         sodipodi:role="line">e</tspan></text>
    <text
       sodipodi:linespacing="125%"
       id="text6578"
       y="317.52121"
       x="973.99268"
       style="font-size:31.91283798px;font-style:normal;font-weight:normal;line-height:125%;letter-spacing:0px;word-spacing:0px;fill:#000000;fill-opacity:1;stroke:none;font-family:Sans"
       xml:space="preserve"><tspan
         y="317.52121"
         x="973.99268"
         id="tspan6580"
         sodipodi:role="line">-</tspan></text>
    <path
       inkscape:label="#path3006"
       transform="matrix(0.110313,0,0,0.110313,860.53292,330.19222)"
       d="m 999.47013,198.7924 a 101.64951,101.64951 0 1 1 -203.29903,0 101.64951,101.64951 0 1 1 203.29903,0 z"
       sodipodi:ry="101.64951"
       sodipodi:rx="101.64951"
       sodipodi:cy="198.7924"
       sodipodi:cx="897.82062"
       id="path7766"
       style="fill:url(#radialGradient8749);fill-opacity:1;stroke:none"
       sodipodi:type="arc" />
    <path
       style="fill:none;stroke:#000000;stroke-width:0.92118895;stroke-linecap:butt;stroke-linejoin:miter;stroke-miterlimit:4;stroke-opacity:1;stroke-dasharray:11.05426714, 11.05426714;stroke-dashoffset:0"
       d="m 986.91306,352.84886 49.21634,0"
       id="path8755"
       inkscape:connector-curvature="0" />
    <path
       inkscape:connector-curvature="0"
       id="path8757"
       d="m 984.91306,346.84886 49.21634,0"
       style="fill:none;stroke:#000000;stroke-width:0.92118895;stroke-linecap:butt;stroke-linejoin:miter;stroke-miterlimit:4;stroke-opacity:1;stroke-dasharray:11.05426714, 11.05426714;stroke-dashoffset:0" />
    <path
       transform="matrix(0.00931857,-0.2651449,0.40775932,0.01433079,714.35326,577.98649)"
       inkscape:connector-curvature="0"
       id="path8759"
       d="m 872.80938,69.732901 c -23.30078,0.566402 -47.00144,5.045466 -67.71068,16.050636 -5.79108,3.387003 -12.45698,7.147202 -14.87735,13.797915 27.87799,79.580998 55.44411,159.273208 83.66742,238.731508 0.22242,2.20362 1.63928,1.28347 1.74452,-0.45073 27.90025,-78.64422 55.58963,-157.36327 83.07804,-236.15297 1.87877,-2.83207 -0.64571,-5.623746 -2.46915,-7.654014 -7.50784,-7.659847 -17.68372,-11.878061 -27.5787,-15.531533 -17.89998,-6.174036 -36.94676,-8.999078 -55.8541,-8.790812 z"
       style="fill:url(#linearGradient8763);fill-opacity:1;stroke:none;filter:url(#filter4192)" />
    <path
       inkscape:label="#path3006"
       transform="matrix(0.110313,0,0,0.110313,762.38439,326.95276)"
       d="m 999.47013,198.7924 a 101.64951,101.64951 0 1 1 -203.29903,0 101.64951,101.64951 0 1 1 203.29903,0 z"
       sodipodi:ry="101.64951"
       sodipodi:rx="101.64951"
       sodipodi:cy="198.7924"
       sodipodi:cx="897.82062"
       id="path8761"
       style="fill:url(#radialGradient8765);fill-opacity:1;stroke:none"
       sodipodi:type="arc" />
    <path
       transform="matrix(-0.05698768,-0.25911592,0.39848751,-0.08763983,637.14575,611.32027)"
       inkscape:connector-curvature="0"
       id="path8767"
       d="m 872.80938,69.732901 c -23.30078,0.566402 -47.00144,5.045466 -67.71068,16.050636 -5.79108,3.387003 -12.45698,7.147202 -14.87735,13.797915 27.87799,79.580998 55.44411,159.273208 83.66742,238.731508 0.22242,2.20362 1.63928,1.28347 1.74452,-0.45073 27.90025,-78.64422 55.58963,-157.36327 83.07804,-236.15297 1.87877,-2.83207 -0.64571,-5.623746 -2.46915,-7.654014 -7.50784,-7.659847 -17.68372,-11.878061 -27.5787,-15.531533 -17.89998,-6.174036 -36.94676,-8.999078 -55.8541,-8.790812 z"
       style="fill:url(#linearGradient8771);fill-opacity:1;stroke:none;filter:url(#filter4192)" />
    <path
       inkscape:label="#path3006"
       transform="matrix(0.110313,0,0,0.110313,616.65492,331.65692)"
       d="m 999.47013,198.7924 a 101.64951,101.64951 0 1 1 -203.29903,0 101.64951,101.64951 0 1 1 203.29903,0 z"
       sodipodi:ry="101.64951"
       sodipodi:rx="101.64951"
       sodipodi:cy="198.7924"
       sodipodi:cx="897.82062"
       id="path8769"
       style="fill:url(#radialGradient8773);fill-opacity:1;stroke:none"
       sodipodi:type="arc" />
    <path
       transform="matrix(0.00533131,-0.26525503,0.40792868,0.00819888,143.59845,584.38319)"
       inkscape:connector-curvature="0"
       id="path8775"
       d="m 872.80938,69.732901 c -23.30078,0.566402 -47.00144,5.045466 -67.71068,16.050636 -5.79108,3.387003 -12.45698,7.147202 -14.87735,13.797915 27.87799,79.580998 55.44411,159.273208 83.66742,238.731508 0.22242,2.20362 1.63928,1.28347 1.74452,-0.45073 27.90025,-78.64422 55.58963,-157.36327 83.07804,-236.15297 1.87877,-2.83207 -0.64571,-5.623746 -2.46915,-7.654014 -7.50784,-7.659847 -17.68372,-11.878061 -27.5787,-15.531533 -17.89998,-6.174036 -36.94676,-8.999078 -55.8541,-8.790812 z"
       style="fill:url(#linearGradient8805);fill-opacity:1;stroke:none;filter:url(#filter4192)" />
    <path
       inkscape:label="#path3006"
       transform="matrix(0.110313,0,0,0.110313,188.09081,328.87289)"
       d="m 999.47013,198.7924 a 101.64951,101.64951 0 1 1 -203.29903,0 101.64951,101.64951 0 1 1 203.29903,0 z"
       sodipodi:ry="101.64951"
       sodipodi:rx="101.64951"
       sodipodi:cy="198.7924"
       sodipodi:cx="897.82062"
       id="path8777"
       style="fill:url(#radialGradient8803);fill-opacity:1;stroke:none"
       sodipodi:type="arc" />
    <path
       style="fill:url(#linearGradient8801);fill-opacity:1;stroke:none;filter:url(#filter4192)"
       d="m 872.80938,69.732901 c -23.30078,0.566402 -47.00144,5.045466 -67.71068,16.050636 -5.79108,3.387003 -12.45698,7.147202 -14.87735,13.797915 27.87799,79.580998 55.44411,159.273208 83.66742,238.731508 0.22242,2.20362 1.63928,1.28347 1.74452,-0.45073 27.90025,-78.64422 55.58963,-157.36327 83.07804,-236.15297 1.87877,-2.83207 -0.64571,-5.623746 -2.46915,-7.654014 -7.50784,-7.659847 -17.68372,-11.878061 -27.5787,-15.531533 -17.89998,-6.174036 -36.94676,-8.999078 -55.8541,-8.790812 z"
       id="path8779"
       inkscape:connector-curvature="0"
       transform="matrix(0.10268224,-0.24463239,0.37621369,0.1579123,220.30169,517.18055)" />
    <path
       sodipodi:type="arc"
       style="fill:url(#radialGradient8799);fill-opacity:1;stroke:none"
       id="path8781"
       sodipodi:cx="897.82062"
       sodipodi:cy="198.7924"
       sodipodi:rx="101.64951"
       sodipodi:ry="101.64951"
       d="m 999.47013,198.7924 a 101.64951,101.64951 0 1 1 -203.29903,0 101.64951,101.64951 0 1 1 203.29903,0 z"
       transform="matrix(0.110313,0,0,0.110313,332.25223,328.95276)"
       inkscape:label="#path3006" />
    <path
       style="fill:url(#linearGradient9817);fill-opacity:1;stroke:none;filter:url(#filter4192)"
       d="m 872.80938,69.732901 c -23.30078,0.566402 -47.00144,5.045466 -67.71068,16.050636 -5.79108,3.387003 -12.45698,7.147202 -14.87735,13.797915 27.87799,79.580998 55.44411,159.273208 83.66742,238.731508 0.22242,2.20362 1.63928,1.28347 1.74452,-0.45073 27.90025,-78.64422 55.58963,-157.36327 83.07804,-236.15297 1.87877,-2.83207 -0.64571,-5.623746 -2.46915,-7.654014 -7.50784,-7.659847 -17.68372,-11.878061 -27.5787,-15.531533 -17.89998,-6.174036 -36.94676,-8.999078 -55.8541,-8.790812 z"
       id="path8787"
       inkscape:connector-curvature="0"
       transform="matrix(0.14041029,-0.22510798,0.3461876,0.21593328,320.8544,482.91959)" />
    <path
       sodipodi:type="arc"
       style="fill:url(#radialGradient9819);fill-opacity:1;stroke:none"
       id="path8789"
       sodipodi:cx="897.82062"
       sodipodi:cy="198.7924"
       sodipodi:rx="101.64951"
       sodipodi:ry="101.64951"
       d="m 999.47013,198.7924 a 101.64951,101.64951 0 1 1 -203.29903,0 101.64951,101.64951 0 1 1 203.29903,0 z"
       transform="matrix(0.110313,0,0,0.110313,458.74941,334.08886)"
       inkscape:label="#path3006" />
  </g>
</svg>
