<svg xmlns="http://www.w3.org/2000/svg" xmlns:xlink="http://www.w3.org/1999/xlink" xmlns:lucid="lucid" width="1846.4" height="1106.77"><g transform="translate(-12 -12)" lucid:page-tab-id="0_0"><path d="M710 1034.8c-5.52 0-10-4.48-10-10v-248c0-5.52 4.48-10 10-10h66.9c5.53 0 10 4.48 10 10v248c0 5.52-4.47 10-10 10z" stroke="#000" stroke-opacity="0" stroke-width="4" fill-opacity="0"/><use xlink:href="#a" transform="matrix(6.123233995736766e-17,-1,1,6.123233995736766e-17,705,1029.8000000000002) translate(91.744140625 33.07465277777778)"/><use xlink:href="#b" transform="matrix(6.123233995736766e-17,-1,1,6.123233995736766e-17,705,1029.8000000000002) translate(59.17035590277777 59.11631944444444)"/><path d="M550 634.8c-5.52 0-10-4.48-10-10v-248c0-5.52 4.48-10 10-10h66.9c5.53 0 10 4.48 10 10v248c0 5.52-4.47 10-10 10z" stroke="#000" stroke-opacity="0" stroke-width="4" fill-opacity="0"/><use xlink:href="#c" transform="matrix(6.123233995736766e-17,-1,1,6.123233995736766e-17,545,629.8000000000002) translate(33.416232638888886 46.095486111111114)"/><use xlink:href="#d" transform="matrix(6.123233995736766e-17,-1,1,6.123233995736766e-17,545,629.8000000000002) translate(84.92447916666666 46.095486111111114)"/><path d="M460 166.8c0 22.1-17.9 40-40 40s-40-17.9-40-40 17.9-40 40-40 40 17.9 40 40z" stroke="#00695c" stroke-width="4" fill="#00695c"/><path d="M32 133.35c0-5.53 4.48-10 10-10h248c5.52 0 10 4.47 10 10v66.9c0 5.53-4.48 10-10 10H42c-5.52 0-10-4.47-10-10z" stroke="#000" stroke-opacity="0" stroke-width="4" fill="#fff" fill-opacity="0"/><use xlink:href="#e" transform="matrix(1,0,0,1,37,128.34666666666666) translate(2.2693142361111143 49.13368055555556)"/><use xlink:href="#f" transform="matrix(1,0,0,1,37,128.34666666666666) translate(137.75759548611111 49.13368055555556)"/><path d="M302 166.8h74" stroke="#000" stroke-width="4" fill="none"/><path d="M302.05 168.8H300v-4h2.05zM378 166.77l.07 2.03h-2.12v-4h2.17z"/><path d="M295 296.8c0-5.52 4.48-10 10-10h230c5.52 0 10 4.48 10 10v60c0 5.52-4.48 10-10 10H305c-5.52 0-10-4.48-10-10z" stroke="#00695c" stroke-width="6" fill-opacity="0"/><use xlink:href="#g" transform="matrix(1,0,0,1,300,291.8) translate(17.38042534722223 42.595486111111114)"/><use xlink:href="#h" transform="matrix(1,0,0,1,300,291.8) translate(54.24023437500001 42.595486111111114)"/><use xlink:href="#i" transform="matrix(1,0,0,1,300,291.8) translate(142.84700520833334 42.595486111111114)"/><path d="M420 210.8v50.26" stroke="#000" stroke-width="4" fill="none"/><path d="M419.97 208.8l2.03-.07v2.12h-4v-2.17z"/><path d="M420 277.33l-4.64-14.27h9.28z" stroke="#000" stroke-width="4"/><path d="M653 296.8c0-5.52 4.48-10 10-10h230c5.52 0 10 4.48 10 10v60c0 5.52-4.48 10-10 10H663c-5.52 0-10-4.48-10-10z" stroke="#fb8c00" stroke-width="6" fill-opacity="0"/><use xlink:href="#c" transform="matrix(1,0,0,1,658,291.8) translate(45.28841145833334 42.595486111111114)"/><use xlink:href="#j" transform="matrix(1,0,0,1,658,291.8) translate(96.79665798611111 42.595486111111114)"/><path d="M550 326.8h77.26" stroke="#000" stroke-width="4" fill="none"/><path d="M550.05 328.8H548v-4h2.05z"/><path d="M643.53 326.8l-14.27 4.64v-9.28z" stroke="#000" stroke-width="4"/><path d="M653 416.8c0-5.52 4.48-10 10-10h230c5.52 0 10 4.48 10 10v60c0 5.52-4.48 10-10 10H663c-5.52 0-10-4.48-10-10z" stroke="#fb8c00" stroke-width="6" fill-opacity="0"/><use xlink:href="#c" transform="matrix(1,0,0,1,658,411.8000000000001) translate(41.46354166666667 42.595486111111114)"/><use xlink:href="#k" transform="matrix(1,0,0,1,658,411.8000000000001) translate(92.97178819444446 42.595486111111114)"/><path d="M653 536.8c0-5.52 4.48-10 10-10h230c5.52 0 10 4.48 10 10v60c0 5.52-4.48 10-10 10H663c-5.52 0-10-4.48-10-10z" stroke="#fb8c00" stroke-width="6" fill-opacity="0"/><use xlink:href="#c" transform="matrix(1,0,0,1,658,531.8000000000002) translate(27.87847222222223 29.57465277777778)"/><use xlink:href="#l" transform="matrix(1,0,0,1,658,531.8000000000002) translate(79.38671875 29.57465277777778)"/><use xlink:href="#m" transform="matrix(1,0,0,1,658,531.8000000000002) translate(199.30859375 29.57465277777778)"/><use xlink:href="#n" transform="matrix(1,0,0,1,658,531.8000000000002) translate(77.44986979166666 55.61631944444444)"/><path d="M778 371.8v9.26" stroke="#000" stroke-width="4" fill="none"/><path d="M780 371.85h-4v-2.05h4z"/><path d="M778 397.33l-4.64-14.27h9.28z" stroke="#000" stroke-width="4"/><path d="M778 491.8v9.26" stroke="#000" stroke-width="4" fill="none"/><path d="M780 491.85h-4v-2.05h4z"/><path d="M778 517.33l-4.64-14.27h9.28z" stroke="#000" stroke-width="4"/><path d="M653 696.8c0-5.52 4.48-10 10-10h230c5.52 0 10 4.48 10 10v60c0 5.52-4.48 10-10 10H663c-5.52 0-10-4.48-10-10z" stroke="#af4345" stroke-width="6" fill-opacity="0"/><use xlink:href="#c" transform="matrix(1,0,0,1,658,691.8000000000002) translate(10.153862847222229 29.57465277777778)"/><use xlink:href="#o" transform="matrix(1,0,0,1,658,691.8000000000002) translate(61.66210937500001 29.57465277777778)"/><use xlink:href="#p" transform="matrix(1,0,0,1,658,691.8000000000002) translate(193.96462673611111 29.57465277777778)"/><use xlink:href="#q" transform="matrix(1,0,0,1,658,691.8000000000002) translate(78.96896701388889 55.61631944444444)"/><path d="M778 611.8v49.26" stroke="#000" stroke-width="4" fill="none"/><path d="M780 611.85h-4v-2.05h4z"/><path d="M778 677.33l-4.64-14.27h9.28z" stroke="#000" stroke-width="4"/><path d="M1040 492.46c0-5.52 4.48-10 10-10h230c5.52 0 10 4.48 10 10v60c0 5.53-4.48 10-10 10h-230c-5.52 0-10-4.47-10-10z" stroke="#af4345" stroke-width="6" fill-opacity="0"/><use xlink:href="#r" transform="matrix(1,0,0,1,1045,487.4629921259839) translate(22.393446180555557 42.595486111111114)"/><use xlink:href="#s" transform="matrix(1,0,0,1,1045,487.4629921259839) translate(102.40646701388889 42.595486111111114)"/><path d="M1040 611.23c0-5.52 4.48-10 10-10h230c5.52 0 10 4.48 10 10v60c0 5.52-4.48 10-10 10h-230c-5.52 0-10-4.48-10-10z" stroke="#af4345" stroke-width="6" fill-opacity="0"/><use xlink:href="#t" transform="matrix(1,0,0,1,1045,606.2314960629919) translate(43.6391059027778 29.57465277777778)"/><use xlink:href="#u" transform="matrix(1,0,0,1,1045,606.2314960629919) translate(110.91341145833334 29.57465277777778)"/><use xlink:href="#m" transform="matrix(1,0,0,1,1045,606.2314960629919) translate(183.54796006944443 29.57465277777778)"/><use xlink:href="#v" transform="matrix(1,0,0,1,1045,606.2314960629919) translate(32.83723958333334 55.61631944444444)"/><use xlink:href="#w" transform="matrix(1,0,0,1,1045,606.2314960629919) translate(141.30078125 55.61631944444444)"/><path d="M1040 730c0-5.52 4.48-10 10-10h230c5.52 0 10 4.48 10 10v60c0 5.52-4.48 10-10 10h-230c-5.52 0-10-4.48-10-10z" stroke="#af4345" stroke-width="6" fill-opacity="0"/><use xlink:href="#t" transform="matrix(1,0,0,1,1045,725) translate(35.685546875000014 42.595486111111114)"/><use xlink:href="#x" transform="matrix(1,0,0,1,1045,725) translate(102.95985243055556 42.595486111111114)"/><path d="M908 726.8h63.5V522.46h42.76" stroke="#000" stroke-width="4" fill="none"/><path d="M908.05 728.8H906v-4h2.05z"/><path d="M1030.53 522.46l-14.27 4.64v-9.27z" stroke="#000" stroke-width="4"/><path d="M1165 567.46v8.03" stroke="#000" stroke-width="4" fill="none"/><path d="M1167 567.5h-4v-2.04h4z"/><path d="M1165 591.76l-4.64-14.27h9.28z" stroke="#000" stroke-width="4"/><path d="M1165 686.23v8.03" stroke="#000" stroke-width="4" fill="none"/><path d="M1167 686.28h-4v-2.05h4z"/><path d="M1165 710.53l-4.64-14.27h9.28z" stroke="#000" stroke-width="4"/><path d="M1165 918.77l131.25 90-131.25 90-131.25-90z" stroke="#000" stroke-width="4" fill-opacity="0"/><use xlink:href="#y" transform="matrix(1,0,0,1,1038.75,923.7685039370081) translate(49.1171875 78.48958333333334)"/><use xlink:href="#z" transform="matrix(1,0,0,1,1038.75,923.7685039370081) translate(96.01822916666667 78.48958333333334)"/><use xlink:href="#A" transform="matrix(1,0,0,1,1038.75,923.7685039370081) translate(59.79427083333333 109.73958333333334)"/><use xlink:href="#B" transform="matrix(1,0,0,1,1038.75,923.7685039370081) translate(134.49479166666669 109.73958333333334)"/><path d="M1165 805v88.6" stroke="#000" stroke-width="4" fill="none"/><path d="M1167 805.05h-4V803h4z"/><path d="M1165 909.87l-4.64-14.26h9.28z" stroke="#000" stroke-width="4"/><path d="M1404.36 796.8c0-5.52 4.48-10 10-10h230c5.53 0 10 4.48 10 10v60c0 5.52-4.47 10-10 10h-230c-5.52 0-10-4.48-10-10z" stroke="#80cbc4" stroke-width="6" fill-opacity="0"/><use xlink:href="#t" transform="matrix(1,0,0,1,1409.3634841376795,791.8000000000002) translate(27.86219618055557 42.595486111111114)"/><use xlink:href="#C" transform="matrix(1,0,0,1,1409.3634841376795,791.8000000000002) translate(95.13650173611111 42.595486111111114)"/><path d="M1377.3 1010.77h-75.5v-4h75.5zm154.06 0h-111v-4h107V892.54h4z"/><path d="M1301.84 1010.77h-4.97l2.92-2-2.93-2h4.97zM1534 890.54h-9.27l4.63-14.27z"/><path d="M1536.75 892.54h-14.77l7.38-22.74zm-9.27-4h3.77l-1.9-5.8z"/><use xlink:href="#D" transform="matrix(1,0,0,1,1377.3014104723586,993.1435039370081) translate(0 24.739583333333336)"/><path d="M1569.36 646.8c0 22.1-17.9 40-40 40s-40-17.9-40-40 17.9-40 40-40 40 17.9 40 40z" stroke="#000" stroke-opacity="0" stroke-width="4" fill="#80cbc4"/><path d="M1529.36 781.8v-72.26" stroke="#000" stroke-width="4" fill="none"/><path d="M1531.36 783.8h-4v-2.05h4z"/><path d="M1529.36 693.27l4.64 14.27h-9.27z" stroke="#000" stroke-width="4"/><path d="M1642.38 616.8c0-5.52 4.48-10 10-10h176.02c5.52 0 10 4.48 10 10v66.9c0 5.53-4.48 10-10 10h-176.02c-5.52 0-10-4.47-10-10z" stroke="#000" stroke-opacity="0" stroke-width="4" fill="#fff" fill-opacity="0"/><use xlink:href="#E" transform="matrix(1,0,0,1,1647.3817420688397,611.8000000000002) translate(13.641059027777771 49.13368055555556)"/><path d="M1571.36 646.8h34.5v.07h34.52" stroke="#000" stroke-width="4" fill="none"/><path d="M1571.4 648.8h-2.16l.12-2-.07-2h2.1zM1642.38 648.87h-2.05v-4h2.05z"/><path d="M1404.36 456.8c0-5.52 4.48-10 10-10h230c5.53 0 10 4.48 10 10v60c0 5.52-4.47 10-10 10h-230c-5.52 0-10-4.48-10-10z" stroke="#80cbc4" stroke-width="6" fill-opacity="0"/><g><use xlink:href="#F" transform="matrix(1,0,0,1,1409.3634841376795,451.8000000000001) translate(57.30013020833334 29.57465277777778)"/><use xlink:href="#G" transform="matrix(1,0,0,1,1409.3634841376795,451.8000000000001) translate(169.88693576388889 29.57465277777778)"/><use xlink:href="#H" transform="matrix(1,0,0,1,1409.3634841376795,451.8000000000001) translate(67.44010416666666 55.61631944444444)"/></g><path d="M1529.36 604.8v-52.26" stroke="#000" stroke-width="4" fill="none"/><path d="M1531.36 606.92l-2-.12-2 .07v-2.12h4z"/><path d="M1529.36 536.27l4.64 14.27h-9.27z" stroke="#000" stroke-width="4"/><path d="M604.6 1006.77h329.3v4H600.6V349.54h4zm423.6 0v4h-60.07v-4z"/><path d="M1030.2 1008.77l2.93 2h-4.97v-4h4.97zM607.23 347.54h-9.27l4.64-14.27z"/><path d="M609.98 349.54H595.2l7.4-22.74zm-9.27-4h3.78l-1.88-5.8z"/><g><use xlink:href="#I" transform="matrix(1,0,0,1,933.9108660011159,993.1435039370081) translate(0 24.739583333333336)"/></g><path d="M1529.36 441.8v-115H928.74" stroke="#000" stroke-width="4" fill="none"/><path d="M1531.36 443.8h-4v-2.05h4z"/><path d="M912.47 326.8l14.27-4.64v9.28z" stroke="#000" stroke-width="4"/><path d="M1049.45 274.25c0-5.52 4.48-10 10-10h248c5.53 0 10 4.48 10 10v66.9c0 5.53-4.47 10-10 10h-248c-5.52 0-10-4.47-10-10z" stroke="#000" stroke-opacity="0" stroke-width="4" fill-opacity="0"/><g><use xlink:href="#J" transform="matrix(1,0,0,1,1054.4533333333334,269.25333333333333) translate(73.50954861111111 46.095486111111114)"/></g><path d="M600 32h962.38v174.8H600z" stroke="#000" stroke-opacity="0" stroke-width="2" fill="#fff" fill-opacity="0"/><g><use xlink:href="#K" transform="matrix(1,0,0,1,605,37) translate(28.96666666666664 92.1)"/><use xlink:href="#L" transform="matrix(1,0,0,1,605,37) translate(162.16666666666666 92.1)"/><use xlink:href="#M" transform="matrix(1,0,0,1,605,37) translate(420.03333333333336 92.1)"/><use xlink:href="#N" transform="matrix(1,0,0,1,605,37) translate(700.7 92.1)"/></g><path d="M778 792.54l-.12 214.23" stroke="#000" stroke-width="4" fill="none"/><path d="M778 776.27l4.62 14.27h-9.27z" stroke="#000" stroke-width="4"/><path d="M777.88 1006.72v2.05" stroke="#000" stroke-width="4" fill="none"/><defs><path d="M972-643H361V0H169v-1456h902v158H361v498h611v157" id="O"/><path d="M599-131c141 0 220-65 285-146l113 88C906-50 770 20 589 20 281 21 93-214 93-545c0-223 93-397 233-485 74-48 154-72 240-72 300 2 449 218 445 537v77H278c0 197 129 357 321 357zm227-509c-3-180-88-310-260-310-170 0-264 140-282 310h542" id="P"/><path d="M561-1102c238-4 403 126 403 351v498c0 99 13 178 38 237V0H808c-11-21-19-59-26-114C696-25 593 20 474 20c-199 0-368-130-365-320 4-251 214-359 490-356h180v-85c-1-135-86-212-229-212-115 0-232 67-233 171H131c20-205 206-316 430-320zM294-326c0 117 90 185 207 185 122 0 239-75 278-162v-222H634c-227 0-340 66-340 199" id="Q"/><path d="M456 20C285 20 205-92 206-268v-671H9v-143h197v-262h185v262h202v143H391v671c-9 125 92 149 207 118V0c-49 13-96 20-142 20" id="R"/><path d="M491 20c-241-1-355-148-355-398v-704h185v699c0 164 67 246 200 246 141 0 235-53 282-158v-787h185V0H812l-4-107C736-22 630 20 491 20" id="S"/><path d="M663-916c-163-27-288 18-338 148V0H140v-1082h180l3 125c61-97 147-145 258-145 36 0 63 5 82 14v172" id="T"/><g id="a"><use transform="matrix(0.010850694444444444,0,0,0.010850694444444444,0,0)" xlink:href="#O"/><use transform="matrix(0.010850694444444444,0,0,0.010850694444444444,12.055121527777777,0)" xlink:href="#P"/><use transform="matrix(0.010850694444444444,0,0,0.010850694444444444,23.828125,0)" xlink:href="#Q"/><use transform="matrix(0.010850694444444444,0,0,0.010850694444444444,35.915798611111114,0)" xlink:href="#R"/><use transform="matrix(0.010850694444444444,0,0,0.010850694444444444,43.17491319444445,0)" xlink:href="#S"/><use transform="matrix(0.010850694444444444,0,0,0.010850694444444444,55.42534722222223,0)" xlink:href="#T"/><use transform="matrix(0.010850694444444444,0,0,0.010850694444444444,62.738715277777786,0)" xlink:href="#P"/></g><path d="M973-380H363L226 0H28l556-1456h168L1309 0h-197zM421-538h495l-248-681" id="U"/><path d="M521 20C240 20 96-239 96-550c0-303 147-552 427-552 132 0 235 47 309 140l9-120h169V-26c4 277-183 454-459 452-165-1-334-81-400-187l96-111c79 98 176 147 291 147 180 1 288-109 286-290v-93C750-23 649 20 521 20zm48-965c-209 0-287 178-287 416 0 217 86 392 285 392 117 0 202-53 257-159v-494c-57-103-142-155-255-155" id="V"/><path d="M1240-945c-141 0-250 95-250 227V0H804v-709c0-157-77-236-231-236-121 0-204 52-249 155V0H139v-1082h175l5 120c79-93 186-140 321-140 151 0 254 58 309 174 69-98 181-174 345-174 237 0 362 126 362 377V0h-185v-714c-2-159-67-231-231-231" id="W"/><path d="M589-945c-131 0-219 81-264 174V0H140v-1082h175l6 136c83-104 191-156 324-156 229 0 346 129 346 387V0H806v-716c-2-153-65-229-217-229" id="X"/><path d="M341 0H156v-1082h185V0zm-91-1264c-68 0-108-42-109-105 0-62 41-107 109-107s110 44 110 107-42 105-110 105" id="Y"/><path d="M584 20C278 26 81-227 91-551c10-320 175-545 491-551 308-5 503 247 494 573-9 322-175 543-492 549zm-2-970c-208 0-305 185-305 421 0 216 106 398 307 398 211 0 307-186 307-420 0-214-109-399-309-399" id="Z"/><g id="b"><use transform="matrix(0.010850694444444444,0,0,0.010850694444444444,0,0)" xlink:href="#U"/><use transform="matrix(0.010850694444444444,0,0,0.010850694444444444,14.496527777777777,0)" xlink:href="#S"/><use transform="matrix(0.010850694444444444,0,0,0.010850694444444444,26.746961805555554,0)" xlink:href="#V"/><use transform="matrix(0.010850694444444444,0,0,0.010850694444444444,39.21440972222222,0)" xlink:href="#W"/><use transform="matrix(0.010850694444444444,0,0,0.010850694444444444,58.69140625,0)" xlink:href="#P"/><use transform="matrix(0.010850694444444444,0,0,0.010850694444444444,70.46440972222223,0)" xlink:href="#X"/><use transform="matrix(0.010850694444444444,0,0,0.010850694444444444,82.72569444444446,0)" xlink:href="#R"/><use transform="matrix(0.010850694444444444,0,0,0.010850694444444444,89.9848090277778,0)" xlink:href="#Q"/><use transform="matrix(0.010850694444444444,0,0,0.010850694444444444,102.0724826388889,0)" xlink:href="#R"/><use transform="matrix(0.010850694444444444,0,0,0.010850694444444444,109.33159722222224,0)" xlink:href="#Y"/><use transform="matrix(0.010850694444444444,0,0,0.010850694444444444,114.7243923611111,0)" xlink:href="#Z"/><use transform="matrix(0.010850694444444444,0,0,0.010850694444444444,127.39800347222224,0)" xlink:href="#X"/></g><path d="M1222-777c17 480-206 763-650 777H169v-1456h411c408 9 627 269 642 679zm-190 4c3-312-149-522-447-525H361v1141h202c308 0 473-209 469-531v-85" id="aa"/><g id="c"><use transform="matrix(0.010850694444444444,0,0,0.010850694444444444,0,0)" xlink:href="#aa"/><use transform="matrix(0.010850694444444444,0,0,0.010850694444444444,14.572482638888888,0)" xlink:href="#Q"/><use transform="matrix(0.010850694444444444,0,0,0.010850694444444444,26.66015625,0)" xlink:href="#R"/><use transform="matrix(0.010850694444444444,0,0,0.010850694444444444,33.919270833333336,0)" xlink:href="#Q"/></g><g id="d"><use transform="matrix(0.010850694444444444,0,0,0.010850694444444444,0,0)" xlink:href="#U"/><use transform="matrix(0.010850694444444444,0,0,0.010850694444444444,14.496527777777777,0)" xlink:href="#S"/><use transform="matrix(0.010850694444444444,0,0,0.010850694444444444,26.746961805555554,0)" xlink:href="#V"/><use transform="matrix(0.010850694444444444,0,0,0.010850694444444444,39.21440972222222,0)" xlink:href="#W"/><use transform="matrix(0.010850694444444444,0,0,0.010850694444444444,58.69140625,0)" xlink:href="#P"/><use transform="matrix(0.010850694444444444,0,0,0.010850694444444444,70.46440972222223,0)" xlink:href="#X"/><use transform="matrix(0.010850694444444444,0,0,0.010850694444444444,82.72569444444446,0)" xlink:href="#R"/><use transform="matrix(0.010850694444444444,0,0,0.010850694444444444,89.9848090277778,0)" xlink:href="#Q"/><use transform="matrix(0.010850694444444444,0,0,0.010850694444444444,102.0724826388889,0)" xlink:href="#R"/><use transform="matrix(0.010850694444444444,0,0,0.010850694444444444,109.33159722222224,0)" xlink:href="#Y"/><use transform="matrix(0.010850694444444444,0,0,0.010850694444444444,114.7243923611111,0)" xlink:href="#Z"/><use transform="matrix(0.010850694444444444,0,0,0.010850694444444444,127.39800347222224,0)" xlink:href="#X"/></g><path d="M1212-428C1211-131 1004 0 696 0H130v-1456h510c318-1 539 108 539 399 0 155-89 264-208 308 141 33 242 151 241 321zM687-241c132 2 225-65 225-190 0-133-69-203-207-203H430v393h257zm192-786c0-145-86-186-239-186H430v367h222c151-3 227-63 227-181" id="ab"/><path d="M463 20c-241-1-359-147-359-393v-709h289v699c0 113 51 169 154 169 98 0 165-34 202-102v-766h290V0H767l-8-110C688-23 589 20 463 20" id="ac"/><path d="M529-185c94 0 168-33 168-114 0-35-18-63-53-83s-91-39-168-55C219-491 90-600 90-765c0-208 203-337 432-337 246 0 451 124 453 349H686c-2-91-62-143-165-143-86 0-151 41-153 117 0 32 16 57 46 77 63 43 257 69 335 100 151 60 229 153 229 291C978-13 554 93 282-28 162-81 60-190 56-344h274c5 106 86 159 199 159" id="ad"/><path d="M416 0H126v-1082h290V0zM271-1212c-92 0-162-61-162-150s68-149 162-149c93 0 162 60 162 149s-70 150-162 150" id="ae"/><path d="M750-692c-1-124-48-174-173-175-81 0-142 35-183 104V0H105v-1082h272l9 125c77-97 181-145 311-145 244 0 342 151 342 403V0H750v-692" id="af"/><path d="M1031-175C952-60 797 20 609 20 287 20 60-206 72-543c12-330 180-559 505-559 309 0 482 214 477 537v118H365c15 134 115 234 263 234 111 0 198-40 261-121zM770-644c5-139-62-226-194-224-130 1-191 97-208 224h402" id="ag"/><g id="e"><use transform="matrix(0.015190972222222224,0,0,0.015190972222222224,0,0)" xlink:href="#ab"/><use transform="matrix(0.015190972222222224,0,0,0.015190972222222224,19.854600694444446,0)" xlink:href="#ac"/><use transform="matrix(0.015190972222222224,0,0,0.015190972222222224,37.263454861111114,0)" xlink:href="#ad"/><use transform="matrix(0.015190972222222224,0,0,0.015190972222222224,53.259548611111114,0)" xlink:href="#ae"/><use transform="matrix(0.015190972222222224,0,0,0.015190972222222224,61.508246527777786,0)" xlink:href="#af"/><use transform="matrix(0.015190972222222224,0,0,0.015190972222222224,78.93229166666667,0)" xlink:href="#ag"/><use transform="matrix(0.015190972222222224,0,0,0.015190972222222224,95.74869791666667,0)" xlink:href="#ad"/><use transform="matrix(0.015190972222222224,0,0,0.015190972222222224,111.74479166666667,0)" xlink:href="#ad"/></g><path d="M1245-974c0 302-233 466-552 461H430V0H130v-1456h568c323 5 547 167 547 482zm-303 2c1-143-93-241-237-241H430v457h268c151 1 244-71 244-216" id="ah"/><path d="M719-811c-143-24-279 1-319 103V0H111v-1082h273l8 129c74-124 180-175 331-136" id="ai"/><path d="M579 20C257 20 58-214 66-551c8-331 182-551 511-551 324 0 514 231 514 572 0 319-198 550-512 550zm-2-888c-169 0-222 141-222 338 0 181 61 317 224 317 170 0 223-137 223-338 0-178-64-317-225-317" id="aj"/><path d="M663-1102c295 0 423 246 423 571 0 313-131 551-421 551-117 0-211-45-281-135L371 0H111v-1536h289v551c67-78 154-117 263-117zm-71 889c164 0 209-139 205-339-3-189-44-315-207-315-92 0-155 38-190 113v427c35 76 99 114 192 114" id="ak"/><path d="M416 0H126v-1536h290V0" id="al"/><path d="M741-689c-2-124-40-177-163-178-82 0-141 34-178 102V0H111v-1082h271l9 121c77-94 180-141 311-141 139 0 235 55 287 165 76-110 184-165 325-165 249 0 348 151 348 411V0h-290v-690c-2-123-39-176-163-177-87 0-147 41-180 124l1 743H741v-689" id="am"/><g id="f"><use transform="matrix(0.015190972222222224,0,0,0.015190972222222224,0,0)" xlink:href="#ah"/><use transform="matrix(0.015190972222222224,0,0,0.015190972222222224,20.067274305555557,0)" xlink:href="#ai"/><use transform="matrix(0.015190972222222224,0,0,0.015190972222222224,30.868055555555557,0)" xlink:href="#aj"/><use transform="matrix(0.015190972222222224,0,0,0.015190972222222224,48.45920138888889,0)" xlink:href="#ak"/><use transform="matrix(0.015190972222222224,0,0,0.015190972222222224,65.97439236111111,0)" xlink:href="#al"/><use transform="matrix(0.015190972222222224,0,0,0.015190972222222224,74.22309027777779,0)" xlink:href="#ag"/><use transform="matrix(0.015190972222222224,0,0,0.015190972222222224,91.03949652777779,0)" xlink:href="#am"/></g><path d="M417-1456L893-268l476-1188h249V0h-192c-4-403 4-794 18-1179L966 0H819L342-1176c15 384 23 773 19 1176H169v-1456h248" id="an"/><path d="M362-157h690V0H169v-1456h193v1299" id="ao"/><g id="g"><use transform="matrix(0.010850694444444444,0,0,0.010850694444444444,0,0)" xlink:href="#an"/><use transform="matrix(0.010850694444444444,0,0,0.010850694444444444,19.401041666666664,0)" xlink:href="#ao"/></g><path d="M1216-1011c-1 297-202 441-512 441H361V0H169v-1456h537c297-6 510 164 510 445zm-192 2c1-178-126-288-307-289H361v571h345c196 1 318-92 318-282" id="ap"/><path d="M634-1102c292 0 422 254 422 573 0 298-143 547-420 549-137 0-242-48-317-145L310 0H140v-1536h185v573c75-93 178-139 309-139zm-44 965c207 0 281-175 281-413 0-224-79-395-283-395-122 0-210 57-263 170v468c57 113 145 170 265 170" id="aq"/><path d="M341 0H156v-1536h185V0" id="ar"/><g id="h"><use transform="matrix(0.010850694444444444,0,0,0.010850694444444444,0,0)" xlink:href="#ap"/><use transform="matrix(0.010850694444444444,0,0,0.010850694444444444,14.019097222222221,0)" xlink:href="#T"/><use transform="matrix(0.010850694444444444,0,0,0.010850694444444444,21.321614583333332,0)" xlink:href="#Z"/><use transform="matrix(0.010850694444444444,0,0,0.010850694444444444,33.99522569444444,0)" xlink:href="#aq"/><use transform="matrix(0.010850694444444444,0,0,0.010850694444444444,46.46267361111111,0)" xlink:href="#ar"/><use transform="matrix(0.010850694444444444,0,0,0.010850694444444444,51.855468749999986,0)" xlink:href="#P"/><use transform="matrix(0.010850694444444444,0,0,0.010850694444444444,63.62847222222221,0)" xlink:href="#W"/></g><g id="i"><use transform="matrix(0.010850694444444444,0,0,0.010850694444444444,0,0)" xlink:href="#O"/><use transform="matrix(0.010850694444444444,0,0,0.010850694444444444,12.000868055555555,0)" xlink:href="#T"/><use transform="matrix(0.010850694444444444,0,0,0.010850694444444444,19.08637152777778,0)" xlink:href="#Q"/><use transform="matrix(0.010850694444444444,0,0,0.010850694444444444,31.17404513888889,0)" xlink:href="#W"/><use transform="matrix(0.010850694444444444,0,0,0.010850694444444444,50.65104166666667,0)" xlink:href="#Y"/><use transform="matrix(0.010850694444444444,0,0,0.010850694444444444,56.04383680555555,0)" xlink:href="#X"/><use transform="matrix(0.010850694444444444,0,0,0.010850694444444444,68.30512152777777,0)" xlink:href="#V"/></g><path d="M688-137c238 0 323-102 359-325h193c-32 297-228 482-552 482-361 0-569-299-569-680 0-197 8-360 73-497 88-186 257-317 513-319 316-2 509 195 535 488h-193c-31-212-118-330-342-330-272 0-397 224-393 523v141c-3 282 115 517 376 517" id="as"/><path d="M277-555c0 244 77 420 297 424 127 2 249-93 255-210h175C980-127 805 20 574 20 258 20 81-222 92-562c11-319 164-533 481-540 237-5 426 165 431 392H829c-7-133-115-242-256-240-209 4-296 166-296 395" id="at"/><g id="j"><use transform="matrix(0.010850694444444444,0,0,0.010850694444444444,0,0)" xlink:href="#as"/><use transform="matrix(0.010850694444444444,0,0,0.010850694444444444,14.463975694444445,0)" xlink:href="#Z"/><use transform="matrix(0.010850694444444444,0,0,0.010850694444444444,27.13758680555556,0)" xlink:href="#ar"/><use transform="matrix(0.010850694444444444,0,0,0.010850694444444444,32.53038194444444,0)" xlink:href="#ar"/><use transform="matrix(0.010850694444444444,0,0,0.010850694444444444,37.92317708333333,0)" xlink:href="#P"/><use transform="matrix(0.010850694444444444,0,0,0.010850694444444444,49.69618055555556,0)" xlink:href="#at"/><use transform="matrix(0.010850694444444444,0,0,0.010850694444444444,61.328125,0)" xlink:href="#R"/><use transform="matrix(0.010850694444444444,0,0,0.010850694444444444,68.58723958333333,0)" xlink:href="#Y"/><use transform="matrix(0.010850694444444444,0,0,0.010850694444444444,73.98003472222221,0)" xlink:href="#Z"/><use transform="matrix(0.010850694444444444,0,0,0.010850694444444444,86.65364583333333,0)" xlink:href="#X"/></g><path d="M375 0H183v-1456h192V0" id="au"/><g id="k"><use transform="matrix(0.010850694444444444,0,0,0.010850694444444444,0,0)" xlink:href="#au"/><use transform="matrix(0.010850694444444444,0,0,0.010850694444444444,6.043836805555555,0)" xlink:href="#X"/><use transform="matrix(0.010850694444444444,0,0,0.010850694444444444,18.30512152777778,0)" xlink:href="#R"/><use transform="matrix(0.010850694444444444,0,0,0.010850694444444444,25.56423611111111,0)" xlink:href="#P"/><use transform="matrix(0.010850694444444444,0,0,0.010850694444444444,37.33723958333333,0)" xlink:href="#V"/><use transform="matrix(0.010850694444444444,0,0,0.010850694444444444,49.804687499999986,0)" xlink:href="#T"/><use transform="matrix(0.010850694444444444,0,0,0.010850694444444444,56.89019097222221,0)" xlink:href="#Q"/><use transform="matrix(0.010850694444444444,0,0,0.010850694444444444,68.97786458333333,0)" xlink:href="#R"/><use transform="matrix(0.010850694444444444,0,0,0.010850694444444444,76.23697916666666,0)" xlink:href="#Y"/><use transform="matrix(0.010850694444444444,0,0,0.010850694444444444,81.62977430555554,0)" xlink:href="#Z"/><use transform="matrix(0.010850694444444444,0,0,0.010850694444444444,94.30338541666666,0)" xlink:href="#X"/></g><path d="M632-1102c291 0 422 251 422 573 0 297-141 548-419 549-131 0-235-42-310-125v521H140v-1498h169l9 120c75-93 180-140 314-140zm-53 971c207 0 290-180 290-419 0-218-92-395-292-395-112 0-196 50-252 149v517c55 99 140 148 254 148" id="av"/><g id="l"><use transform="matrix(0.010850694444444444,0,0,0.010850694444444444,0,0)" xlink:href="#ap"/><use transform="matrix(0.010850694444444444,0,0,0.010850694444444444,14.019097222222221,0)" xlink:href="#T"/><use transform="matrix(0.010850694444444444,0,0,0.010850694444444444,21.33246527777778,0)" xlink:href="#P"/><use transform="matrix(0.010850694444444444,0,0,0.010850694444444444,33.10546875,0)" xlink:href="#av"/><use transform="matrix(0.010850694444444444,0,0,0.010850694444444444,45.572916666666664,0)" xlink:href="#Q"/><use transform="matrix(0.010850694444444444,0,0,0.010850694444444444,57.66059027777778,0)" xlink:href="#T"/><use transform="matrix(0.010850694444444444,0,0,0.010850694444444444,64.74609375,0)" xlink:href="#Q"/><use transform="matrix(0.010850694444444444,0,0,0.010850694444444444,76.83376736111111,0)" xlink:href="#R"/><use transform="matrix(0.010850694444444444,0,0,0.010850694444444444,84.09288194444444,0)" xlink:href="#Y"/><use transform="matrix(0.010850694444444444,0,0,0.010850694444444444,89.48567708333333,0)" xlink:href="#Z"/><use transform="matrix(0.010850694444444444,0,0,0.010850694444444444,102.15928819444444,0)" xlink:href="#X"/></g><path d="M572 20C306 25 99-136 101-391c0-70 20-134 59-193s113-127 223-205c-65-79-108-142-130-190s-33-96-33-143c-3-220 144-354 364-354 187 0 349 127 346 308-3 212-172 290-307 398l324 387c45-87 68-183 68-289h167c0 170-41 311-123 423L1267 0h-222l-97-115C862-36 726 17 572 20zM286-391c0 162 118 260 286 260 98 0 188-37 269-112L486-668c-110 72-200 183-200 277zm297-933c-109 0-180 87-178 196 0 64 39 144 118 240 93-79 236-119 236-280 0-91-82-156-176-156" id="aw"/><use transform="matrix(0.010850694444444444,0,0,0.010850694444444444,0,0)" xlink:href="#aw" id="m"/><g id="n"><use transform="matrix(0.010850694444444444,0,0,0.010850694444444444,0,0)" xlink:href="#as"/><use transform="matrix(0.010850694444444444,0,0,0.010850694444444444,14.463975694444445,0)" xlink:href="#ar"/><use transform="matrix(0.010850694444444444,0,0,0.010850694444444444,19.856770833333332,0)" xlink:href="#P"/><use transform="matrix(0.010850694444444444,0,0,0.010850694444444444,31.629774305555554,0)" xlink:href="#Q"/><use transform="matrix(0.010850694444444444,0,0,0.010850694444444444,43.717447916666664,0)" xlink:href="#X"/><use transform="matrix(0.010850694444444444,0,0,0.010850694444444444,55.978732638888886,0)" xlink:href="#Y"/><use transform="matrix(0.010850694444444444,0,0,0.010850694444444444,61.37152777777778,0)" xlink:href="#X"/><use transform="matrix(0.010850694444444444,0,0,0.010850694444444444,73.6328125,0)" xlink:href="#V"/></g><path d="M651-255l416-1201h210L737 0H567L28-1456h209" id="ax"/><path d="M538-131c121 0 232-49 232-156 0-50-20-88-56-117-73-60-334-92-420-143-92-55-162-110-162-238 0-190 192-317 400-317 223 0 414 129 413 338H759c0-108-110-186-227-186-119 0-215 53-215 159 0 45 18 78 53 101 76 52 331 90 416 139 98 57 169 115 169 251C955-92 760 20 538 20c-176 0-314-68-386-174-38-55-57-115-57-179h185c6 129 116 202 258 202" id="ay"/><path d="M314-151h633V0H88v-136l597-793H97v-153h820v131" id="az"/><g id="o"><use transform="matrix(0.010850694444444444,0,0,0.010850694444444444,0,0)" xlink:href="#ax"/><use transform="matrix(0.010850694444444444,0,0,0.010850694444444444,14.13845486111111,0)" xlink:href="#Y"/><use transform="matrix(0.010850694444444444,0,0,0.010850694444444444,19.53125,0)" xlink:href="#ay"/><use transform="matrix(0.010850694444444444,0,0,0.010850694444444444,30.989583333333332,0)" xlink:href="#S"/><use transform="matrix(0.010850694444444444,0,0,0.010850694444444444,43.24001736111111,0)" xlink:href="#Q"/><use transform="matrix(0.010850694444444444,0,0,0.010850694444444444,55.32769097222221,0)" xlink:href="#ar"/><use transform="matrix(0.010850694444444444,0,0,0.010850694444444444,60.7204861111111,0)" xlink:href="#Y"/><use transform="matrix(0.010850694444444444,0,0,0.010850694444444444,66.11328124999999,0)" xlink:href="#az"/><use transform="matrix(0.010850694444444444,0,0,0.010850694444444444,77.1267361111111,0)" xlink:href="#Q"/><use transform="matrix(0.010850694444444444,0,0,0.010850694444444444,89.21440972222221,0)" xlink:href="#R"/><use transform="matrix(0.010850694444444444,0,0,0.010850694444444444,96.47352430555556,0)" xlink:href="#Y"/><use transform="matrix(0.010850694444444444,0,0,0.010850694444444444,101.86631944444441,0)" xlink:href="#Z"/><use transform="matrix(0.010850694444444444,0,0,0.010850694444444444,114.53993055555556,0)" xlink:href="#X"/></g><path d="M520 20C244 20 95-247 95-550c0-298 151-550 427-552 127 0 227 43 301 130v-564h185V0H838l-9-116C755-25 652 20 520 20zm48-965c-210 0-288 177-288 416 0 218 87 392 286 392 117 0 203-53 257-158v-497c-55-102-140-153-255-153" id="aA"/><g id="p"><use transform="matrix(0.010850694444444444,0,0,0.010850694444444444,0,0)" xlink:href="#Q"/><use transform="matrix(0.010850694444444444,0,0,0.010850694444444444,12.08767361111111,0)" xlink:href="#X"/><use transform="matrix(0.010850694444444444,0,0,0.010850694444444444,24.348958333333332,0)" xlink:href="#aA"/></g><path d="M494-271l252-811h198L509 167C425 381 299 474 84 421V271c167 16 242-37 283-173l41-110L22-1082h202" id="aB"/><g id="q"><use transform="matrix(0.010850694444444444,0,0,0.010850694444444444,0,0)" xlink:href="#U"/><use transform="matrix(0.010850694444444444,0,0,0.010850694444444444,14.496527777777777,0)" xlink:href="#X"/><use transform="matrix(0.010850694444444444,0,0,0.010850694444444444,26.7578125,0)" xlink:href="#Q"/><use transform="matrix(0.010850694444444444,0,0,0.010850694444444444,38.845486111111114,0)" xlink:href="#ar"/><use transform="matrix(0.010850694444444444,0,0,0.010850694444444444,44.23828125,0)" xlink:href="#aB"/><use transform="matrix(0.010850694444444444,0,0,0.010850694444444444,54.752604166666664,0)" xlink:href="#ay"/><use transform="matrix(0.010850694444444444,0,0,0.010850694444444444,66.2109375,0)" xlink:href="#Y"/><use transform="matrix(0.010850694444444444,0,0,0.010850694444444444,71.60373263888889,0)" xlink:href="#ay"/></g><g id="r"><use transform="matrix(0.010850694444444444,0,0,0.010850694444444444,0,0)" xlink:href="#O"/><use transform="matrix(0.010850694444444444,0,0,0.010850694444444444,12.055121527777777,0)" xlink:href="#P"/><use transform="matrix(0.010850694444444444,0,0,0.010850694444444444,23.828125,0)" xlink:href="#Q"/><use transform="matrix(0.010850694444444444,0,0,0.010850694444444444,35.915798611111114,0)" xlink:href="#R"/><use transform="matrix(0.010850694444444444,0,0,0.010850694444444444,43.17491319444445,0)" xlink:href="#S"/><use transform="matrix(0.010850694444444444,0,0,0.010850694444444444,55.42534722222223,0)" xlink:href="#T"/><use transform="matrix(0.010850694444444444,0,0,0.010850694444444444,62.738715277777786,0)" xlink:href="#P"/></g><path d="M992-673H361v516h733V0H169v-1456h915v158H361v468h631v157" id="aC"/><g id="s"><use transform="matrix(0.010850694444444444,0,0,0.010850694444444444,0,0)" xlink:href="#aC"/><use transform="matrix(0.010850694444444444,0,0,0.010850694444444444,12.630208333333332,0)" xlink:href="#X"/><use transform="matrix(0.010850694444444444,0,0,0.010850694444444444,24.891493055555554,0)" xlink:href="#V"/><use transform="matrix(0.010850694444444444,0,0,0.010850694444444444,37.35894097222222,0)" xlink:href="#Y"/><use transform="matrix(0.010850694444444444,0,0,0.010850694444444444,42.75173611111111,0)" xlink:href="#X"/><use transform="matrix(0.010850694444444444,0,0,0.010850694444444444,55.01302083333333,0)" xlink:href="#P"/><use transform="matrix(0.010850694444444444,0,0,0.010850694444444444,66.78602430555554,0)" xlink:href="#P"/><use transform="matrix(0.010850694444444444,0,0,0.010850694444444444,78.55902777777777,0)" xlink:href="#T"/><use transform="matrix(0.010850694444444444,0,0,0.010850694444444444,86.07855902777777,0)" xlink:href="#Y"/><use transform="matrix(0.010850694444444444,0,0,0.010850694444444444,91.47135416666666,0)" xlink:href="#X"/><use transform="matrix(0.010850694444444444,0,0,0.010850694444444444,103.73263888888889,0)" xlink:href="#V"/></g><g id="t"><use transform="matrix(0.010850694444444444,0,0,0.010850694444444444,0,0)" xlink:href="#an"/><use transform="matrix(0.010850694444444444,0,0,0.010850694444444444,19.401041666666664,0)" xlink:href="#Z"/><use transform="matrix(0.010850694444444444,0,0,0.010850694444444444,32.07465277777777,0)" xlink:href="#aA"/><use transform="matrix(0.010850694444444444,0,0,0.010850694444444444,44.6072048611111,0)" xlink:href="#P"/><use transform="matrix(0.010850694444444444,0,0,0.010850694444444444,56.38020833333332,0)" xlink:href="#ar"/></g><path d="M1175-1298H707V0H516v-1298H49v-158h1126v158" id="aD"/><g id="u"><use transform="matrix(0.010850694444444444,0,0,0.010850694444444444,0,0)" xlink:href="#aD"/><use transform="matrix(0.010850694444444444,0,0,0.010850694444444444,12.445746527777777,0)" xlink:href="#T"/><use transform="matrix(0.010850694444444444,0,0,0.010850694444444444,19.53125,0)" xlink:href="#Q"/><use transform="matrix(0.010850694444444444,0,0,0.010850694444444444,31.61892361111111,0)" xlink:href="#Y"/><use transform="matrix(0.010850694444444444,0,0,0.010850694444444444,37.01171875,0)" xlink:href="#X"/><use transform="matrix(0.010850694444444444,0,0,0.010850694444444444,49.27300347222222,0)" xlink:href="#Y"/><use transform="matrix(0.010850694444444444,0,0,0.010850694444444444,54.66579861111111,0)" xlink:href="#V"/></g><g id="v"><use transform="matrix(0.010850694444444444,0,0,0.010850694444444444,0,0)" xlink:href="#ap"/><use transform="matrix(0.010850694444444444,0,0,0.010850694444444444,13.899739583333332,0)" xlink:href="#Q"/><use transform="matrix(0.010850694444444444,0,0,0.010850694444444444,25.987413194444443,0)" xlink:href="#T"/><use transform="matrix(0.010850694444444444,0,0,0.010850694444444444,33.072916666666664,0)" xlink:href="#Q"/><use transform="matrix(0.010850694444444444,0,0,0.010850694444444444,45.16059027777778,0)" xlink:href="#W"/><use transform="matrix(0.010850694444444444,0,0,0.010850694444444444,64.63758680555554,0)" xlink:href="#P"/><use transform="matrix(0.010850694444444444,0,0,0.010850694444444444,76.41059027777777,0)" xlink:href="#R"/><use transform="matrix(0.010850694444444444,0,0,0.010850694444444444,83.6697048611111,0)" xlink:href="#P"/><use transform="matrix(0.010850694444444444,0,0,0.010850694444444444,95.44270833333331,0)" xlink:href="#T"/></g><g id="w"><use transform="matrix(0.010850694444444444,0,0,0.010850694444444444,0,0)" xlink:href="#aD"/><use transform="matrix(0.010850694444444444,0,0,0.010850694444444444,12.22873263888889,0)" xlink:href="#S"/><use transform="matrix(0.010850694444444444,0,0,0.010850694444444444,24.479166666666664,0)" xlink:href="#X"/><use transform="matrix(0.010850694444444444,0,0,0.010850694444444444,36.740451388888886,0)" xlink:href="#Y"/><use transform="matrix(0.010850694444444444,0,0,0.010850694444444444,42.13324652777777,0)" xlink:href="#X"/><use transform="matrix(0.010850694444444444,0,0,0.010850694444444444,54.394531249999986,0)" xlink:href="#V"/></g><path d="M497-251l268-831h189L566 0H425L33-1082h189" id="aE"/><g id="x"><use transform="matrix(0.010850694444444444,0,0,0.010850694444444444,0,0)" xlink:href="#aC"/><use transform="matrix(0.010850694444444444,0,0,0.010850694444444444,12.348090277777777,0)" xlink:href="#aE"/><use transform="matrix(0.010850694444444444,0,0,0.010850694444444444,22.94921875,0)" xlink:href="#Q"/><use transform="matrix(0.010850694444444444,0,0,0.010850694444444444,35.036892361111114,0)" xlink:href="#ar"/><use transform="matrix(0.010850694444444444,0,0,0.010850694444444444,40.4296875,0)" xlink:href="#S"/><use transform="matrix(0.010850694444444444,0,0,0.010850694444444444,52.68012152777778,0)" xlink:href="#Q"/><use transform="matrix(0.010850694444444444,0,0,0.010850694444444444,64.76779513888889,0)" xlink:href="#R"/><use transform="matrix(0.010850694444444444,0,0,0.010850694444444444,72.02690972222221,0)" xlink:href="#Y"/><use transform="matrix(0.010850694444444444,0,0,0.010850694444444444,77.4197048611111,0)" xlink:href="#Z"/><use transform="matrix(0.010850694444444444,0,0,0.010850694444444444,90.09331597222221,0)" xlink:href="#X"/></g><g id="y"><use transform="matrix(0.013020833333333334,0,0,0.013020833333333334,0,0)" xlink:href="#U"/><use transform="matrix(0.013020833333333334,0,0,0.013020833333333334,17.395833333333336,0)" xlink:href="#T"/><use transform="matrix(0.013020833333333334,0,0,0.013020833333333334,26.171875000000004,0)" xlink:href="#P"/></g><path d="M1160-420C1159-145 963 0 674 0H169v-1456h476c294-1 476 112 476 388 0 153-99 253-216 302 146 38 255 167 255 346zM678-157c171 2 289-95 289-261 0-175-95-263-286-263H361v524h317zm250-912c-2-172-104-229-283-229H361v463h290c157 3 278-84 277-234" id="aF"/><g id="z"><use transform="matrix(0.013020833333333334,0,0,0.013020833333333334,0,0)" xlink:href="#aF"/><use transform="matrix(0.013020833333333334,0,0,0.013020833333333334,16.6015625,0)" xlink:href="#S"/><use transform="matrix(0.013020833333333334,0,0,0.013020833333333334,31.302083333333336,0)" xlink:href="#ay"/><use transform="matrix(0.013020833333333334,0,0,0.013020833333333334,45.052083333333336,0)" xlink:href="#Y"/><use transform="matrix(0.013020833333333334,0,0,0.013020833333333334,51.5234375,0)" xlink:href="#X"/><use transform="matrix(0.013020833333333334,0,0,0.013020833333333334,66.23697916666667,0)" xlink:href="#P"/><use transform="matrix(0.013020833333333334,0,0,0.013020833333333334,80.36458333333334,0)" xlink:href="#ay"/><use transform="matrix(0.013020833333333334,0,0,0.013020833333333334,94.11458333333334,0)" xlink:href="#ay"/></g><path d="M730-137c145 0 253-29 323-105v-327H716v-156h528v534C1148-51 964 20 729 20c-394 0-598-279-607-678v-127c-5-410 194-690 585-691 310-1 499 171 537 447h-192c-36-193-151-289-344-289-285 0-393 220-393 528v119c-5 296 140 534 415 534" id="aG"/><g id="A"><use transform="matrix(0.013020833333333334,0,0,0.013020833333333334,0,0)" xlink:href="#aG"/><use transform="matrix(0.013020833333333334,0,0,0.013020833333333334,18.1640625,0)" xlink:href="#Z"/><use transform="matrix(0.013020833333333334,0,0,0.013020833333333334,33.372395833333336,0)" xlink:href="#Q"/><use transform="matrix(0.013020833333333334,0,0,0.013020833333333334,47.87760416666667,0)" xlink:href="#ar"/><use transform="matrix(0.013020833333333334,0,0,0.013020833333333334,54.348958333333336,0)" xlink:href="#ay"/></g><path d="M486-1476c244 0 401 141 400 380 0 117-54 232-162 345L615-643c-49 54-73 132-73 233H357c6-184 32-232 129-341 78-87 215-190 215-339 0-139-76-224-215-224-128 0-227 74-226 199H75c0-220 182-361 411-361zM458 11c-68 0-108-41-109-104 0-63 41-106 109-106s110 43 110 106S526 11 458 11" id="aH"/><g id="B"><use transform="matrix(0.013020833333333334,0,0,0.013020833333333334,0,0)" xlink:href="#an"/><use transform="matrix(0.013020833333333334,0,0,0.013020833333333334,23.28125,0)" xlink:href="#P"/><use transform="matrix(0.013020833333333334,0,0,0.013020833333333334,37.40885416666667,0)" xlink:href="#R"/><use transform="matrix(0.013020833333333334,0,0,0.013020833333333334,46.11979166666667,0)" xlink:href="#aH"/></g><g id="C"><use transform="matrix(0.010850694444444444,0,0,0.010850694444444444,0,0)" xlink:href="#aa"/><use transform="matrix(0.010850694444444444,0,0,0.010850694444444444,14.572482638888888,0)" xlink:href="#P"/><use transform="matrix(0.010850694444444444,0,0,0.010850694444444444,26.345486111111104,0)" xlink:href="#av"/><use transform="matrix(0.010850694444444444,0,0,0.010850694444444444,38.81293402777777,0)" xlink:href="#ar"/><use transform="matrix(0.010850694444444444,0,0,0.010850694444444444,44.20572916666666,0)" xlink:href="#Z"/><use transform="matrix(0.010850694444444444,0,0,0.010850694444444444,56.7165798611111,0)" xlink:href="#aB"/><use transform="matrix(0.010850694444444444,0,0,0.010850694444444444,67.23090277777777,0)" xlink:href="#W"/><use transform="matrix(0.010850694444444444,0,0,0.010850694444444444,86.70789930555554,0)" xlink:href="#P"/><use transform="matrix(0.010850694444444444,0,0,0.010850694444444444,98.48090277777777,0)" xlink:href="#X"/><use transform="matrix(0.010850694444444444,0,0,0.010850694444444444,110.7421875,0)" xlink:href="#R"/></g><path d="M613-725l380-731h218L709-543V0H517v-543L15-1456h220" id="aI"/><g id="D"><use transform="matrix(0.013020833333333334,0,0,0.013020833333333334,0,0)" xlink:href="#aI"/><use transform="matrix(0.013020833333333334,0,0,0.013020833333333334,15.169270833333334,0)" xlink:href="#P"/><use transform="matrix(0.013020833333333334,0,0,0.013020833333333334,29.296875,0)" xlink:href="#ay"/></g><path d="M488 20C204 20 66-234 66-549c0-305 140-551 424-553 105 0 192 39 261 118v-552h290V0H780l-14-115C694-25 601 20 488 20zM355-528c0 176 51 314 207 314 89 0 152-38 189-113v-427c-36-75-98-113-187-113-139 0-209 113-209 339" id="aJ"/><path d="M355-556c-2 203 30 338 206 343 102 3 181-63 182-161h271C1001-128 821 17 566 20 242 24 66-212 66-554c0-320 184-548 498-548 262 0 451 167 450 423H743c-1-108-75-193-184-189-162 6-202 123-204 312" id="aK"/><path d="M457-330c2 83 25 111 111 112 32 0 60-2 85-7V-6c-57 17-115 26-175 26-203 0-310-102-310-307v-583H10v-212h158v-266h289v266h185v212H457v540" id="aL"/><g id="E"><use transform="matrix(0.015190972222222224,0,0,0.015190972222222224,0,0)" xlink:href="#ah"/><use transform="matrix(0.015190972222222224,0,0,0.015190972222222224,20.067274305555557,0)" xlink:href="#ai"/><use transform="matrix(0.015190972222222224,0,0,0.015190972222222224,31.126302083333336,0)" xlink:href="#ag"/><use transform="matrix(0.015190972222222224,0,0,0.015190972222222224,47.942708333333336,0)" xlink:href="#aJ"/><use transform="matrix(0.015190972222222224,0,0,0.015190972222222224,65.47309027777779,0)" xlink:href="#ae"/><use transform="matrix(0.015190972222222224,0,0,0.015190972222222224,73.72178819444446,0)" xlink:href="#aK"/><use transform="matrix(0.015190972222222224,0,0,0.015190972222222224,89.9457465277778,0)" xlink:href="#aL"/><use transform="matrix(0.015190972222222224,0,0,0.015190972222222224,100.45789930555557,0)" xlink:href="#ae"/><use transform="matrix(0.015190972222222224,0,0,0.015190972222222224,108.70659722222224,0)" xlink:href="#aj"/><use transform="matrix(0.015190972222222224,0,0,0.015190972222222224,126.29774305555557,0)" xlink:href="#af"/><use transform="matrix(0.015190972222222224,0,0,0.015190972222222224,143.72178819444446,0)" xlink:href="#ad"/></g><g id="F"><use transform="matrix(0.010850694444444444,0,0,0.010850694444444444,0,0)" xlink:href="#an"/><use transform="matrix(0.010850694444444444,0,0,0.010850694444444444,19.401041666666664,0)" xlink:href="#Z"/><use transform="matrix(0.010850694444444444,0,0,0.010850694444444444,32.07465277777777,0)" xlink:href="#X"/><use transform="matrix(0.010850694444444444,0,0,0.010850694444444444,44.33593749999999,0)" xlink:href="#Y"/><use transform="matrix(0.010850694444444444,0,0,0.010850694444444444,49.72873263888888,0)" xlink:href="#R"/><use transform="matrix(0.010850694444444444,0,0,0.010850694444444444,56.77083333333333,0)" xlink:href="#Z"/><use transform="matrix(0.010850694444444444,0,0,0.010850694444444444,69.44444444444444,0)" xlink:href="#T"/><use transform="matrix(0.010850694444444444,0,0,0.010850694444444444,76.96397569444444,0)" xlink:href="#Y"/><use transform="matrix(0.010850694444444444,0,0,0.010850694444444444,82.35677083333333,0)" xlink:href="#X"/><use transform="matrix(0.010850694444444444,0,0,0.010850694444444444,94.61805555555556,0)" xlink:href="#V"/></g><use transform="matrix(0.010850694444444444,0,0,0.010850694444444444,0,0)" xlink:href="#aw" id="G"/><g id="H"><use transform="matrix(0.010850694444444444,0,0,0.010850694444444444,0,0)" xlink:href="#aa"/><use transform="matrix(0.010850694444444444,0,0,0.010850694444444444,14.572482638888888,0)" xlink:href="#P"/><use transform="matrix(0.010850694444444444,0,0,0.010850694444444444,26.345486111111104,0)" xlink:href="#aq"/><use transform="matrix(0.010850694444444444,0,0,0.010850694444444444,38.81293402777777,0)" xlink:href="#S"/><use transform="matrix(0.010850694444444444,0,0,0.010850694444444444,51.06336805555556,0)" xlink:href="#V"/><use transform="matrix(0.010850694444444444,0,0,0.010850694444444444,63.53081597222221,0)" xlink:href="#V"/><use transform="matrix(0.010850694444444444,0,0,0.010850694444444444,75.99826388888889,0)" xlink:href="#Y"/><use transform="matrix(0.010850694444444444,0,0,0.010850694444444444,81.39105902777777,0)" xlink:href="#X"/><use transform="matrix(0.010850694444444444,0,0,0.010850694444444444,93.65234375,0)" xlink:href="#V"/></g><path d="M1288 0h-193L362-1122V0H169v-1456h193l735 1127v-1127h191V0" id="aM"/><g id="I"><use transform="matrix(0.013020833333333334,0,0,0.013020833333333334,0,0)" xlink:href="#aM"/><use transform="matrix(0.013020833333333334,0,0,0.013020833333333334,19.010416666666668,0)" xlink:href="#Z"/></g><path d="M1161-1018c0 201-122 330-278 388l342 618V0h-206L703-589H361V0H168v-1456h482c310-2 511 139 511 438zm-193 0c0-187-120-280-313-280H361v552h295c179 3 313-101 312-272" id="aN"/><path d="M525-543H37v-151h488v151" id="aO"/><g id="J"><use transform="matrix(0.010850694444444444,0,0,0.010850694444444444,0,0)" xlink:href="#aN"/><use transform="matrix(0.010850694444444444,0,0,0.010850694444444444,13.682725694444445,0)" xlink:href="#P"/><use transform="matrix(0.010850694444444444,0,0,0.010850694444444444,25.455729166666664,0)" xlink:href="#aO"/><use transform="matrix(0.010850694444444444,0,0,0.010850694444444444,31.586371527777775,0)" xlink:href="#aD"/><use transform="matrix(0.010850694444444444,0,0,0.010850694444444444,44.03211805555556,0)" xlink:href="#T"/><use transform="matrix(0.010850694444444444,0,0,0.010850694444444444,51.11762152777778,0)" xlink:href="#Q"/><use transform="matrix(0.010850694444444444,0,0,0.010850694444444444,63.205295138888886,0)" xlink:href="#Y"/><use transform="matrix(0.010850694444444444,0,0,0.010850694444444444,68.59809027777777,0)" xlink:href="#X"/><use transform="matrix(0.010850694444444444,0,0,0.010850694444444444,80.859375,0)" xlink:href="#Y"/><use transform="matrix(0.010850694444444444,0,0,0.010850694444444444,86.25217013888889,0)" xlink:href="#X"/><use transform="matrix(0.010850694444444444,0,0,0.010850694444444444,98.51345486111111,0)" xlink:href="#V"/></g><path d="M248-680c-108-2-147 129-151 236H72l8-268h574l8 268h-25c-3-107-45-238-151-236-32 1-73-10-73 27v594c0 18 9 27 27 27h96V0H198v-32h96c18 0 27-9 27-27v-594c3-36-41-26-73-27" id="aP"/><path d="M312-444c-68 0-134 108-134 190v208c-2 31 37 20 64 22V0H28v-24c29-4 78 13 78-22v-620c2-35-49-18-78-22v-24h150v348l4 1c28-54 70-105 139-105 87 0 127 57 127 149v273c-2 31 37 20 64 22V0H312v-24c27-2 64 9 64-22v-293c0-70-21-105-64-105" id="aQ"/><path d="M326-252c-5-88-11-183-94-192-83 10-92 104-96 192h190zM248 12C123 12 45-98 48-228c4-128 65-240 188-240 128 0 169 115 176 244H136c3 107 9 212 114 212 84 0 118-62 128-144h24c-7 92-56 168-154 168" id="aR"/><g id="K"><use transform="matrix(0.06666666666666667,0,0,0.06666666666666667,0,0)" xlink:href="#aP"/><use transform="matrix(0.06666666666666667,0,0,0.06666666666666667,47.6,0)" xlink:href="#aQ"/><use transform="matrix(0.06666666666666667,0,0,0.06666666666666667,83.86666666666667,0)" xlink:href="#aR"/></g><path d="M201-112c-1 59 34 89 99 80V0H62v-32c65 9 100-21 99-80v-541c2-44-62-22-99-27v-32h212l163 551 152-551h207v32c-37 5-99-17-99 27v594c-2 44 62 22 99 27V0H506v-32c37-5 99 17 99-27v-590L422 12h-24L207-622h-6v510" id="aS"/><path d="M192-24c74 0 93-70 116-126v-95c-90 18-178 26-178 142 0 53 21 79 62 79zm-16 36C101 10 43-22 46-106c4-137 147-136 262-160 5-95 5-178-93-178-41 0-103 28-87 72 3 5 8 9 15 10 25 7 37 20 37 39 0 26-15 39-44 39-33-1-58-28-58-66 0-72 71-119 140-118 88 1 162 47 162 142v246c0 33 10 50 31 50 31 0 47-33 47-100h18c0 95-27 142-80 142-57 0-86-32-88-96l-5-2c-18 42-66 100-127 98" id="aT"/><path d="M402-156c-5 84-64 168-158 168C124 12 48-104 48-228c0-123 77-240 196-240 81 0 149 59 150 131 1 37-22 64-55 66-53 3-65-79-13-90 11-2 16-9 16-18 0-37-47-69-98-65-103 7-108 97-108 216 0 120 4 211 108 216 83 4 125-72 134-144h24" id="aU"/><path d="M184-632c0 29-24 52-52 52-29 0-52-24-52-52 0-29 24-52 52-52 29 0 52 24 52 52zM38 0v-24c27-2 64 9 64-22v-364c2-31-37-20-64-22v-24h136v410c-2 31 37 20 64 22V0H38" id="aV"/><path d="M308-444c-68 0-134 108-134 190v208c-2 31 37 20 64 22V0H38v-24c27-2 64 9 64-22v-364c2-31-37-20-64-22v-24h136v92l4 1c28-54 70-105 139-105 87 0 127 57 127 149v273c-2 31 37 20 64 22V0H308v-24c27-2 64 9 64-22v-293c0-70-21-105-64-105" id="aW"/><g id="L"><use transform="matrix(0.06666666666666667,0,0,0.06666666666666667,0,0)" xlink:href="#aS"/><use transform="matrix(0.06666666666666667,0,0,0.06666666666666667,55.86666666666667,0)" xlink:href="#aT"/><use transform="matrix(0.06666666666666667,0,0,0.06666666666666667,89.2,0)" xlink:href="#aU"/><use transform="matrix(0.06666666666666667,0,0,0.06666666666666667,118.26666666666667,0)" xlink:href="#aQ"/><use transform="matrix(0.06666666666666667,0,0,0.06666666666666667,154.53333333333333,0)" xlink:href="#aV"/><use transform="matrix(0.06666666666666667,0,0,0.06666666666666667,172.53333333333333,0)" xlink:href="#aW"/><use transform="matrix(0.06666666666666667,0,0,0.06666666666666667,208.53333333333333,0)" xlink:href="#aR"/></g><path d="M62 0v-32c37-5 99 17 99-27v-594c2-44-62-22-99-27v-32h306v32c-40 7-114-20-115 27v594c0 18 9 27 27 27 99-1 204 14 250-52 29-42 53-123 57-185h25L599 0H62" id="aX"/><path d="M289-356c-8-35 49-45 49-71 0-23-45-19-62-8-61 39-102 163-102 257v132c-2 31 37 20 64 22V0H38v-24c27-2 64 9 64-22v-364c2-31-37-20-64-22v-24h136v126l4 1c26-65 58-135 136-139 48-2 76 37 76 82 0 32-20 70-56 68-25-1-46-13-45-38" id="aY"/><path d="M268 238c-98-1-214-25-216-116-1-52 51-93 98-99v-3C91 7 62-17 62-54c0-60 55-86 109-96v-3c-67-29-101-79-101-151 0-99 83-164 178-164 45 0 116 31 133 52 9-29 36-51 69-52 43-1 78 29 78 72 0 29-15 54-42 54-22 0-41-12-40-36-5-26 28-30 28-50 0-23-49-20-60-2-10 10-15 21-16 34 19 26 28 57 28 92 0 99-81 164-178 164-61 0-142 12-146 67-3 41 87 31 129 31h103c84 0 152 48 150 136-2 104-103 145-216 144zm-20-682c-69 0-98 63-98 140s29 140 98 140 98-63 98-140-29-140-98-140zM365 26c-119 2-262-16-269 94-4 69 98 94 172 94 92 1 180-25 180-112 0-47-28-77-83-76" id="aZ"/><g id="M"><use transform="matrix(0.06666666666666667,0,0,0.06666666666666667,0,0)" xlink:href="#aX"/><use transform="matrix(0.06666666666666667,0,0,0.06666666666666667,44.666666666666664,0)" xlink:href="#aR"/><use transform="matrix(0.06666666666666667,0,0,0.06666666666666667,75.33333333333333,0)" xlink:href="#aT"/><use transform="matrix(0.06666666666666667,0,0,0.06666666666666667,108.66666666666664,0)" xlink:href="#aY"/><use transform="matrix(0.06666666666666667,0,0,0.06666666666666667,136,0)" xlink:href="#aW"/><use transform="matrix(0.06666666666666667,0,0,0.06666666666666667,172,0)" xlink:href="#aV"/><use transform="matrix(0.06666666666666667,0,0,0.06666666666666667,190,0)" xlink:href="#aW"/><use transform="matrix(0.06666666666666667,0,0,0.06666666666666667,226,0)" xlink:href="#aZ"/></g><path d="M636-526c0 118-113 190-240 190H253v277c1 47 75 20 115 27V0H62v-32c37-5 99 17 99-27v-594c2-44-62-22-99-27v-32h334c127-3 240 67 240 186zM409-368c158 2 163-315 0-312H280c-18 0-27 9-27 27v285h156" id="ba"/><path d="M248-12c75 0 112-72 112-216s-37-216-112-216-112 72-112 216S173-12 248-12zm200-216c0 120-85 240-200 240S48-108 48-228s85-240 200-240 200 120 200 240" id="bb"/><path d="M166-44C221 7 353 0 346-96c-5-70-121-91-178-117-76-35-116-75-116-132 0-80 57-119 134-123 47-3 94 35 130 48 17 2 17-22 18-38h18v152h-18c-24-73-64-133-149-138-62-4-108 56-73 108 10 15 69 41 76 45 82 44 204 50 204 173 0 136-169 165-248 90-33-32-65-1-66 40H60v-198h18c27 54 43 101 88 142" id="bc"/><g id="N"><use transform="matrix(0.06666666666666667,0,0,0.06666666666666667,0,0)" xlink:href="#ba"/><use transform="matrix(0.06666666666666667,0,0,0.06666666666666667,45.333333333333336,0)" xlink:href="#aY"/><use transform="matrix(0.06666666666666667,0,0,0.06666666666666667,72.66666666666667,0)" xlink:href="#bb"/><use transform="matrix(0.06666666666666667,0,0,0.06666666666666667,105.73333333333333,0)" xlink:href="#aU"/><use transform="matrix(0.06666666666666667,0,0,0.06666666666666667,134.8,0)" xlink:href="#aR"/><use transform="matrix(0.06666666666666667,0,0,0.06666666666666667,165.46666666666667,0)" xlink:href="#bc"/><use transform="matrix(0.06666666666666667,0,0,0.06666666666666667,194.4,0)" xlink:href="#bc"/></g></defs></g></svg>